<?xml version="1.0" standalone="no"?>
<!DOCTYPE svg PUBLIC "-//W3C//DTD SVG 20010904//EN"
 "http://www.w3.org/TR/2001/REC-SVG-20010904/DTD/svg10.dtd">
<svg version="1.0" xmlns="http://www.w3.org/2000/svg"
 width="1501.000000pt" height="1501.000000pt" viewBox="0 0 1501.000000 1501.000000"
 preserveAspectRatio="xMidYMid meet">
<metadata>
Created by potrace 1.11, written by Peter Selinger 2001-2013
</metadata>
<g transform="translate(0.000000,1501.000000) scale(0.100000,-0.100000)"
fill="#000000" stroke="none">
<path d="M1464 13745 c13 -166 37 -702 34 -734 -3 -34 -5 -32 -442 368 -241
221 -440 400 -441 399 -1 -2 6 -138 15 -303 10 -165 17 -301 16 -301 0 -1 -75
60 -166 136 -96 81 -166 133 -168 125 -4 -15 345 -6371 354 -6451 5 -47 8 -52
37 -61 18 -6 1556 -704 3419 -1551 l3387 -1540 3418 1553 3418 1553 8 53 c8
62 360 6436 355 6449 -2 4 -76 -53 -166 -127 -90 -74 -165 -134 -166 -132 -2
2 4 137 14 299 9 162 16 296 15 298 -2 1 -196 -174 -432 -390 -236 -216 -436
-398 -444 -405 -12 -10 -11 47 8 410 12 232 21 423 20 424 -1 1 -1367 -1409
-3036 -3134 l-3034 -3134 -82 83 c-46 46 -1384 1440 -2975 3098 -1591 1658
-2910 3033 -2932 3055 l-40 40 6 -80z m2441 -2710 c1236 -1320 2268 -2422
2294 -2450 25 -27 -6 -2 -69 56 -63 58 -1069 978 -2235 2044 -1166 1065 -2141
1958 -2167 1984 l-48 46 -15 305 c-8 168 -17 331 -19 363 -2 32 -1 57 3 55 5
-2 1020 -1083 2256 -2403z m9439 2353 c-2 -29 -11 -192 -20 -362 -8 -170 -17
-313 -20 -318 -7 -11 -4501 -4129 -4629 -4241 -55 -49 -113 -98 -130 -110 -16
-12 821 879 1860 1978 1039 1100 2123 2248 2409 2552 287 304 524 552 528 553
4 0 5 -24 2 -52z m-10868 -1548 c901 -844 1666 -1561 1699 -1593 33 -32 -46
28 -175 135 -543 448 -3107 2583 -3132 2607 -26 26 -26 29 -35 209 -4 100 -5
181 -2 180 3 -2 743 -694 1645 -1538z m11679 1345 c-10 -188 -11 -195 -35
-219 -19 -18 -3239 -2680 -3345 -2765 -30 -23 -25 -19 1750 1647 897 842 1632
1531 1635 1531 3 1 1 -87 -5 -194z"/>
<path d="M673 6845 c0 -27 2 -38 4 -22 2 15 2 37 0 50 -2 12 -4 0 -4 -28z"/>
<path d="M681 6674 c0 -11 3 -14 6 -6 3 7 2 16 -1 19 -3 4 -6 -2 -5 -13z"/>
<path d="M745 5513 c3 -32 19 -305 35 -608 17 -302 34 -552 38 -556 12 -11
6680 -3039 6692 -3039 12 0 6680 3028 6692 3039 7 6 78 1212 72 1219 -1 2
-1524 -687 -3384 -1532 l-3381 -1536 -3378 1535 c-1858 844 -3381 1535 -3385
1535 -3 0 -3 -26 -1 -57z"/>
</g>
</svg>
