<svg id="Layer_1" data-name="Layer 1" xmlns="http://www.w3.org/2000/svg" viewBox="0 0 8641 1520"><defs><style>.cls-1{fill:none;}.cls-2{fill:#ededed;}.cls-3{fill:#ddd;}.cls-4{fill:#c4c4c4;}</style></defs><title>Artboard 3</title><polygon class="cls-1" points="7641 1502 7389 1502 5981 1502 5981 2230 7949 2230 7949 1502 7641 1502"/><polygon class="cls-1" points="6341 102 6981 102 6981 887.77 7389 1348.23 7389 894 7949 894 7949 -290 5981 -290 5981 1366 6341 1366 6341 102"/><polygon class="cls-2" points="7641 1502 7949 1502 7949 894 7389 894 7389 1348.23 6981 887.77 6981 102 6341 102 6341 1366 5981 1366 5981 1502 7389 1502 7641 1502"/><rect class="cls-2" x="8468" y="912" width="173" height="608"/><rect class="cls-2" y="912" width="173" height="608"/><polygon class="cls-2" points="1052 1384 1466.75 1384 1466.75 1181.46 2022.17 1181.46 2022.17 870.88 2287.41 605.64 2926.71 605.64 2926.71 16.22 3403 24 3402.78 1348.09 3499 1348.09 3499 1198 4591.88 1198 4591.88 407.77 5095.16 407.77 5095.16 -203.73 5648.31 -203.73 5648.31 933.88 6215.06 933.88 6215.06 1383.86 6673 1383.86 6673 1520 4685 1520 4588 1520 3499 1520 1052 1520 900 1520 412 1520 412 -16 1052 -16 1052 1384"/><polygon class="cls-3" points="8641 1325.46 8449.83 1325.46 8449.83 1014.88 8184.59 749.64 7545.29 749.64 7545.29 160.22 7069.22 318.91 7069.22 1492.09 6589.75 1492.09 6062.67 965 4940.5 965 4416.82 1488.68 3324.12 1488.68 3324.12 935.53 2820.84 935.53 2820.84 510.03 2267.69 510.03 2267.69 1280.12 1700.94 1280.12 1700.94 1285.46 1490.83 1285.46 1490.83 974.88 1225.59 709.64 586.29 709.64 586.29 120.22 110.22 278.91 110.22 1325 0 1325 0 1452.09 0 1520 8641 1520 8641 1325.46"/><polygon class="cls-4" points="5621 1384 5206.25 1384 5206.25 1181.46 4650.83 1181.46 4650.83 870.88 4385.59 605.64 3746.29 605.64 3746.29 16.22 3270.22 174.91 3270.22 1348.09 3174 1348.09 3174 1198 2081.12 1198 2081.12 407.77 1577.84 407.77 1577.84 -203.73 1024.69 -203.73 1024.69 933.88 457.94 933.88 457.94 1383.86 0 1383.86 0 1520 1988 1520 2085 1520 3174 1520 5621 1520 5773 1520 6261 1520 6261 -16 5621 -16 5621 1384"/><polygon class="cls-4" points="8281 1384 8281 120 7641 120 7641 905.77 7233 1366.23 7233 912 6593 912 6593 1520 6981 1520 7233 1520 8641 1520 8641 1384 8281 1384"/></svg>