<svg id="Layer_1" data-name="Layer 1" xmlns="http://www.w3.org/2000/svg" viewBox="0 0 8641 1400"><defs><style>.cls-1{fill:none;}.cls-2{fill:#ededed;}.cls-3{fill:#ddd;}.cls-4{fill:#c4c4c4;}</style></defs><title>Artboard 3</title><polygon class="cls-1" points="7641 1382 7389 1382 5981 1382 5981 2110 7949 2110 7949 1382 7641 1382"/><polygon class="cls-1" points="6341 -18 6981 -18 6981 767.77 7389 1228.23 7389 774 7949 774 7949 -410 5981 -410 5981 1246 6341 1246 6341 -18"/><polygon class="cls-2" points="7641 1382 7949 1382 7949 774 7389 774 7389 1228.23 6981 767.77 6981 -18 6341 -18 6341 1246 5981 1246 5981 1382 7389 1382 7641 1382"/><rect class="cls-2" x="8468" y="792" width="173" height="608"/><rect class="cls-2" y="792" width="173" height="608"/><polygon class="cls-2" points="1052 1264 1466.75 1264 1466.75 1061.46 2022.17 1061.46 2022.17 750.88 2287.41 485.64 2926.71 485.64 2926.71 -103.78 3403 -96 3402.78 1228.09 3499 1228.09 3499 1078 4591.88 1078 4591.88 287.77 5095.16 287.77 5095.16 -323.73 5648.31 -323.73 5648.31 813.88 6215.06 813.88 6215.06 1263.86 6673 1263.86 6673 1400 4685 1400 4588 1400 3499 1400 1052 1400 900 1400 412 1400 412 -136 1052 -136 1052 1264"/><polygon class="cls-3" points="8641 1205.46 8449.83 1205.46 8449.83 894.88 8184.59 629.64 7545.29 629.64 7545.29 40.22 7069.22 198.91 7069.22 1372.09 6589.75 1372.09 6062.67 845 4940.5 845 4416.82 1368.68 3324.12 1368.68 3324.12 815.53 2820.84 815.53 2820.84 390.03 2267.69 390.03 2267.69 1160.12 1700.94 1160.12 1700.94 1165.46 1490.83 1165.46 1490.83 854.88 1225.59 589.64 586.29 589.64 586.29 0.22 110.22 158.91 110.22 1205 0 1205 0 1332.09 0 1400 8641 1400 8641 1205.46"/><polygon class="cls-4" points="5621 1264 5206.25 1264 5206.25 1061.46 4650.83 1061.46 4650.83 750.88 4385.59 485.64 3746.29 485.64 3746.29 -103.78 3270.22 54.91 3270.22 1228.09 3174 1228.09 3174 1078 2081.12 1078 2081.12 287.77 1577.84 287.77 1577.84 -323.73 1024.69 -323.73 1024.69 813.88 457.94 813.88 457.94 1263.86 0 1263.86 0 1400 1988 1400 2085 1400 3174 1400 5621 1400 5773 1400 6261 1400 6261 -136 5621 -136 5621 1264"/><polygon class="cls-4" points="8281 1264 8281 0 7641 0 7641 785.77 7233 1246.23 7233 792 6593 792 6593 1400 6981 1400 7233 1400 8641 1400 8641 1264 8281 1264"/></svg>