<svg id="Layer_8" data-name="Layer 8" xmlns="http://www.w3.org/2000/svg" viewBox="0 0 500 648"><title>armour</title><g style="opacity:0.1"><polyline points="249.47 342.21 318.44 330.71 426.4 361.83 318.62 323.32 249.47 328.79"/><polyline points="158.97 379.44 119.63 428.96 192.96 450.71 103.12 435.96 147.53 374.12"/><polygon points="238.49 450.71 292.19 537.96 441.56 640.66 303.19 530.68 250.73 427.96 232.69 435.46 142.06 508.23 78.69 638.46 151.44 519.4 238.49 450.71 238.49 450.71"/><polygon points="228.97 463.14 209.78 448.54 182.45 468.17 207.27 492.11 228.97 463.14"/><polygon points="157.81 355.77 122.77 381.62 159.1 391.39 189.8 378.79 157.81 355.77"/><polygon points="229.73 347.05 229.73 320.44 271.73 308.94 260.73 351.44 235.73 360.57 229.73 347.05"/><polygon points="147.53 374.12 249.47 328.79 246.69 445.35 229.73 434.12 206.14 400.02 147.53 374.12"/><polygon points="265.44 341.96 271.73 318.47 305.38 310.92 305.79 339.59 265.44 341.96"/><polygon points="153.26 391.05 130.46 386.07 108.54 412.69 133.94 425.99 153.26 391.05"/><polygon points="210.39 432.04 201.66 477.45 164.28 459.31 170.27 430.03 210.39 432.04"/><rect x="158.98" y="431.96" width="9.86" height="21.31" transform="translate(110.21 -26.31) rotate(13.79)"/><polygon points="170.29 429.95 185.94 424.21 193.94 432.46 182.9 435.46 170.29 429.95"/><rect x="378.83" y="338.35" width="9.86" height="21.31" transform="translate(529.1 846.95) rotate(-148.56)"/><polyline points="378.19 360.67 383.76 378.71 401.44 375.71"/><polygon points="423.81 383.59 415.39 382.33 420 375.98 423.81 383.59"/><polygon points="430.48 374.42 422.06 373.15 426.67 366.8 430.48 374.42"/><polygon points="437.14 365.24 428.72 363.97 433.33 357.63 437.14 365.24"/><polygon points="274.02 453.79 244.18 472.18 240.1 458.62 230.93 462.1 208.46 446.14 229.73 425.99 252.27 421.37 274.02 453.79"/><polygon points="308.56 520.57 312.99 560.17 274.02 540.63 274.36 514.89 308.56 520.57"/><polygon points="160.7 524.79 124.02 540.38 130.34 504.51 156.34 490.39 160.7 524.79"/><polygon points="269.47 458.62 248.81 471.94 258.02 504.3 289.59 488.76 269.47 458.62"/><polyline points="445.62 625.83 445.62 649.83 388.44 649.71 396.93 631.08 418.39 620.79"/><polygon points="88.03 649.83 41.62 649.83 55.62 620.33 79.19 626.79 88.03 649.83"/><rect x="353.48" y="578.76" width="27.02" height="8.57" transform="translate(-315.85 491.68) rotate(-50.19)"/><rect x="103.51" y="559.42" width="27.02" height="8.57" transform="translate(297.53 17.01) rotate(30)"/><polygon points="211.47 469.29 203.13 472.27 205.01 463.23 211.47 469.29"/><polygon points="214.19 456.22 205.85 459.19 207.74 450.15 214.19 456.22"/><polygon points="216.92 443.14 208.58 446.12 210.47 437.08 216.92 443.14"/><polygon points="210.67 469.11 202.33 472.08 204.22 463.04 210.67 469.11"/><polygon points="213.4 456.03 205.06 459.01 206.95 449.97 213.4 456.03"/><polygon points="216.13 442.95 207.79 445.93 209.68 436.89 216.13 442.95"/><polygon points="433.42 355.71 410.86 387.17 378.19 360.67 392.45 338.41 433.42 355.71"/><polygon points="210.28 432.01 201.16 476.58 164.37 458.84 170.29 429.95 210.28 432.01"/><polygon points="445.62 625.83 422.56 642.85 415.89 638.24 407.98 632.78 356.81 597.42 380.81 569.92 445.62 625.83"/><polygon points="88.03 649.83 68.38 629.14 100.17 555.81 131.81 574.01 88.03 649.83"/><polygon points="160.36 321.46 169.9 308.41 181.29 292.84 183.3 310.35 207.31 287.55 207.31 306.22 225.26 302.02 212.4 322.22 220.4 322.22 210.22 337.42 215.03 338.79 199.58 355.32 199.87 331.96 198 341.46 197.54 325.49 193.38 324.58 194.03 322.62 174.82 323.89 176.94 320.64 168.25 322.64 167.07 319.96 160.36 321.46"/><polygon points="199.94 363.14 182.9 379.44 163.75 376.09 156.53 319.96 199.94 319.96 199.94 363.14"/><polygon points="197.54 366.44 174.94 389.76 165.45 379.86 158.97 325.49 197.54 325.49 197.54 366.44"/></g><polyline points="253.47 340.21 322.44 328.71 430.4 359.83 322.62 321.32 253.47 326.79" style="fill:#919191"/><polyline points="162.97 377.44 123.63 426.96 196.96 448.71 107.12 433.96 151.53 372.12" style="fill:#919191"/><polygon points="242.49 448.71 296.19 535.96 445.56 638.66 307.19 528.68 254.73 425.96 236.69 433.46 146.06 506.23 82.69 636.46 155.44 517.4 242.49 448.71 242.49 448.71" style="fill:#919191"/><polygon points="232.97 461.14 213.78 446.54 186.45 466.17 211.27 490.11 232.97 461.14"/><polygon points="161.81 353.77 126.77 379.62 163.1 389.39 193.8 376.79 161.81 353.77"/><polygon points="233.73 345.05 233.73 318.44 275.73 306.94 264.73 349.44 239.73 358.57 233.73 345.05"/><polygon points="151.53 372.12 253.47 326.79 250.69 443.35 233.73 432.12 210.14 398.02 151.53 372.12"/><polygon points="269.44 339.96 275.73 316.47 309.38 308.92 309.79 337.59 269.44 339.96"/><polygon points="304.64 312.98 304.98 336.36 307.34 336.22 306.98 310.71 277.04 317.43 276.55 319.28 304.64 312.98" style="fill:#fff"/><polygon points="157.26 389.05 134.46 384.07 112.54 410.69 137.94 423.99 157.26 389.05"/><polygon points="214.39 430.04 205.66 475.45 168.28 457.31 174.27 428.03 214.39 430.04" style="fill:#fff"/><rect x="162.98" y="429.96" width="9.86" height="21.31" transform="translate(109.85 -27.32) rotate(13.79)"/><polygon points="174.29 427.95 189.94 422.21 197.94 430.46 186.9 433.46 174.29 427.95"/><rect x="382.83" y="336.35" width="9.86" height="21.31" transform="translate(537.56 845.33) rotate(-148.56)"/><polyline points="382.19 358.67 387.76 376.71 405.44 373.71"/><polygon points="427.81 381.59 419.39 380.33 424 373.98 427.81 381.59"/><polygon points="434.48 372.42 426.06 371.15 430.67 364.8 434.48 372.42"/><polygon points="441.14 363.24 432.72 361.97 437.33 355.63 441.14 363.24"/><polygon points="278.02 451.79 248.18 470.18 244.1 456.62 234.93 460.1 212.46 444.14 233.73 423.99 256.27 419.37 278.02 451.79"/><polygon points="236.69 451.26 233.73 432.12 239.53 453.2 236.69 451.26" style="fill:#fff"/><ellipse cx="232.33" cy="425.96" rx="4.27" ry="7.15" transform="translate(-109.52 81.64) rotate(-16.18)" style="fill:#fff"/><polygon points="312.56 518.57 316.99 558.17 278.02 538.63 278.36 512.89 312.56 518.57"/><polygon points="164.7 522.79 128.02 538.38 134.34 502.51 160.34 488.39 164.7 522.79"/><polygon points="273.47 456.62 252.81 469.94 262.02 502.3 293.59 486.76 273.47 456.62"/><polyline points="449.62 623.83 449.62 647.83 392.44 647.71 400.93 629.08 422.39 618.79" style="fill:#919191"/><polygon points="92.03 647.83 45.62 647.83 59.62 618.33 83.19 624.79 92.03 647.83" style="fill:#919191"/><rect x="357.48" y="576.76" width="27.02" height="8.57" transform="translate(-312.88 494.04) rotate(-50.19)"/><rect x="107.51" y="557.42" width="27.02" height="8.57" transform="translate(297.07 14.74) rotate(30)"/><polygon points="196.81 375.46 231.87 420.98 214.28 393.79 196.81 375.46" style="fill:#fff"/><polygon points="118.02 407.7 138.62 418.77 137.4 420.81 114.93 408.73 134.69 385.25 136.56 385.67 118.02 407.7" style="fill:#fff"/><polygon points="215.47 467.29 207.13 470.27 209.01 461.23 215.47 467.29" style="fill:#fff"/><polygon points="218.19 454.22 209.85 457.19 211.74 448.15 218.19 454.22" style="fill:#fff"/><polygon points="220.92 441.14 212.58 444.12 214.47 435.08 220.92 441.14" style="fill:#fff"/><polygon points="214.67 467.11 206.33 470.08 208.22 461.04 214.67 467.11"/><polygon points="217.4 454.03 209.06 457.01 210.95 447.97 217.4 454.03"/><polygon points="220.13 440.95 211.79 443.93 213.68 434.89 220.13 440.95"/><polygon points="437.42 353.71 414.86 385.17 382.19 358.67 396.45 336.41 437.42 353.71" style="fill:#919191"/><ellipse cx="412.64" cy="350.56" rx="6.3" ry="10.08" transform="translate(-84.47 565.12) rotate(-63.69)" style="fill:#fff"/><polygon points="214.28 430.01 205.16 474.58 168.37 456.84 174.29 427.95 214.28 430.01" style="fill:#919191"/><circle cx="190.61" cy="446.54" r="10.08" style="fill:#fff"/><polygon points="449.62 623.83 426.56 640.85 419.89 636.24 411.98 630.78 360.81 595.42 384.81 567.92 449.62 623.83"/><polygon points="92.03 647.83 72.38 627.14 104.17 553.81 135.81 572.01 92.03 647.83"/><polygon points="138.5 504.48 160.84 492.35 160.57 490.19 136.54 503.23 130.23 535.11 132.58 534.11 138.5 504.48" style="fill:#fff"/><polyline points="280.52 512.55 280.18 537.29 314.9 554.89 314.71 553.16 281.68 536.41 282 513.49" style="fill:#fff"/><polygon points="164.36 319.46 173.9 306.41 185.29 290.84 187.3 308.35 211.31 285.55 211.31 304.22 229.26 300.02 216.4 320.22 224.4 320.22 214.22 335.42 219.03 336.79 203.58 353.32 203.87 329.96 202 339.46 201.54 323.49 197.38 322.58 198.03 320.62 178.82 321.89 180.94 318.64 172.25 320.64 171.07 317.96 164.36 319.46" style="fill:red"/><polygon points="203.94 361.14 186.9 377.44 167.75 374.09 160.53 317.96 203.94 317.96 203.94 361.14"/><polygon points="201.54 364.44 178.94 387.76 169.45 377.86 162.97 323.49 201.54 323.49 201.54 364.44" style="fill:#919191"/><polygon points="173.69 377.39 167.21 329.46 165.49 329.46 171.97 377.39 180.96 385.67 181.77 384.84 173.69 377.39" style="fill:#fff"/></svg>