<svg id="Layer_8" data-name="Layer 8" xmlns="http://www.w3.org/2000/svg" viewBox="0 0 500 648"><title>force</title><g id="force-hair"><path d="M256.25,235.81c21.57-.69,34.06,15.74,36.73,20.35,23.12,40,27,95.38,1.37,137.86-38.9,64.6-83.86,57.74-95.87,97.12-10.67,35,27,84.31,115.54,78,82.25-5.86,126-84.56,129.67-91.33-8.21,19.33-79,132.41-166.67,142.67C146,635.81,54.35,509.15,117.58,428.63c37.35-47.55,88.77-39.49,97-79.49,6.6-32-16-59.71,0-88C224.56,243.51,236.62,236.44,256.25,235.81Z" style="opacity:0.1"/><path d="M260.25,233.81c21.57-.69,34.06,15.74,36.73,20.35,23.12,40,27,95.38,1.37,137.86-38.9,64.6-83.86,57.74-95.87,97.12-10.67,35,27,84.31,115.54,78,82.25-5.86,126-84.56,129.67-91.33-8.21,19.33-79,132.41-166.67,142.67C150,633.81,58.35,507.15,121.58,426.63c37.35-47.55,88.77-39.49,97-79.49,6.6-32-16-59.71,0-88C228.56,241.51,240.62,234.44,260.25,233.81Z" style="fill:red"/></g><g style="opacity:0.1"><path d="M125.91,523.67l75.17-82,44.58-28.47,49.75,26,70.71,84.44c-18.51-11-59.48-39.28-120.6-38.69C187.07,485.54,144.44,512.69,125.91,523.67Z"/><polyline points="252.74 398.42 328.27 506.06 411.02 648.92 321.79 514.51 245.52 423.59"/><polyline points="239.3 398.42 163.77 506.06 81.02 648.92 170.25 514.51 246.52 423.59"/><polyline points="217.72 323.58 142.91 331.87 211.35 306.09"/><polyline points="217.72 323.58 142.91 331.87 200.73 310.09"/><polygon points="152.86 319.28 149.63 304.11 149 279.5 145.23 278.74 142.66 307.12 130.22 280.88 126.86 282.46 136.28 310.36 136.08 310.46 116.62 288.89 114.7 290.63 129.75 313.65 129.61 313.72 112.36 303.95 110.63 305.69 123.79 317.93 123.83 317.93 139.93 341.44 154.91 334.42 165.35 310.83 162.97 311.24 152.86 319.28"/><path d="M140.91,315a6.34,6.34,0,1,0,6.34,6.34A6.34,6.34,0,0,0,140.91,315Zm0,12a5.69,5.69,0,1,1,5.69-5.69A5.69,5.69,0,0,1,140.91,327Z"/><polyline points="274.56 323.58 349.36 331.87 280.92 306.09"/><polygon points="443.69 650 398.8 650 402.7 635.16 443.69 650"/><rect x="396.32" y="632.57" width="12.76" height="5.17" transform="translate(1018.26 1067.21) rotate(157.44)"/><polygon points="217.42 297.02 245.93 277.39 274.62 297.02 266.75 316.39 226.75 318 217.42 297.02"/><polygon points="211.02 306.09 281.02 306.09 266.86 348.81 246.02 424.15 225.36 348.81 211.02 306.09"/><polygon points="269.16 297.02 267.46 306.31 245.68 403.06 224.08 306.06 222.89 297.02 214.71 297.02 220.13 306.09 245.68 393.89 271.28 306.09 277.33 297.02 269.16 297.02"/><rect x="238.36" y="393.89" width="15.98" height="10.41"/><polygon points="266.13 303.39 246.33 298.33 225.99 303.39 225.99 269.93 246.33 276.31 266.13 269.93 266.13 303.39"/><polygon points="263.06 314.92 246.02 324.34 228.97 314.92 228.97 253.55 263.06 253.55 263.06 314.92"/><path d="M247.18,396.74c2.77-.53,7.3-.59,8.54,1.42,21.77,35.42,99.26,66,113.21,89.71v37.77L247.18,403.39Z"/><path d="M244.86,396.74c-2.77-.53-7.3-.59-8.54,1.42-21.77,35.42-99.26,66-113.21,89.71v37.77L244.86,403.39Z"/><path d="M245.52,397c-2.72-.52-7.17-.58-8.39,1.4-21.39,34.8-97.51,64.85-111.22,88.14v37.11l119.6-120.11Z"/><path d="M246.52,397c2.72-.52,7.17-.58,8.39,1.4,21.39,34.8,97.51,64.85,111.22,88.14v37.11L246.52,403.56Z"/><rect x="234.22" y="393.26" width="23.59" height="5.17"/><polygon points="166.01 502.86 172.66 511.64 183.9 498.24 179.46 483.69 166.01 502.86"/><polygon points="190.83 489.98 194.09 486.09 188.61 470.6 185.66 474.75 190.83 489.98"/><polyline points="274.56 323.58 349.36 331.87 291.54 310.09"/><polygon points="339.41 319.28 342.65 304.11 343.27 279.5 347.04 278.74 349.61 307.12 362.05 280.88 365.42 282.46 355.99 310.36 356.2 310.46 375.65 288.89 377.57 290.63 362.52 313.65 362.66 313.72 379.92 303.95 381.64 305.69 368.48 317.93 368.44 317.93 352.34 341.44 337.36 334.42 326.93 310.83 329.3 311.24 339.41 319.28"/><path d="M345,321.34a6.34,6.34,0,1,0,6.34-6.34A6.34,6.34,0,0,0,345,321.34Zm.65,0a5.69,5.69,0,1,1,5.69,5.69A5.69,5.69,0,0,1,345.67,321.34Z"/><polygon points="49.1 650 93.98 650 90.09 635.16 49.1 650"/><rect x="83.71" y="632.57" width="12.76" height="5.17" transform="translate(250.57 14.04) rotate(22.56)"/><polygon points="326.09 502.86 319.44 511.64 308.2 498.24 312.64 483.69 326.09 502.86"/><polygon points="301.27 489.98 298.01 486.09 303.49 470.6 306.44 474.75 301.27 489.98"/></g><path d="M129.91,521.67l75.17-82,44.58-28.47,49.75,26,70.71,84.44c-18.51-11-59.48-39.28-120.6-38.69C191.07,483.54,148.44,510.69,129.91,521.67Z" style="fill:#919191"/><polyline points="256.74 396.42 332.27 504.06 415.02 646.92 325.79 512.51 249.52 421.59"/><polyline points="243.3 396.42 167.77 504.06 85.02 646.92 174.25 512.51 250.52 421.59"/><polyline points="221.72 321.58 146.91 329.87 215.35 304.09" style="fill:#fff"/><polyline points="221.72 321.58 146.91 329.87 204.73 308.09"/><polygon points="156.86 317.28 153.63 302.11 153 277.5 149.23 276.74 146.66 305.12 134.22 278.88 130.86 280.46 140.28 308.36 140.08 308.46 120.62 286.89 118.7 288.63 133.75 311.65 133.61 311.72 116.36 301.95 114.63 303.69 127.79 315.93 127.83 315.93 143.93 339.44 158.91 332.42 169.35 308.83 166.97 309.24 156.86 317.28" style="fill:#919191"/><path d="M144.91,313a6.34,6.34,0,1,0,6.34,6.34A6.34,6.34,0,0,0,144.91,313Zm0,12a5.69,5.69,0,1,1,5.69-5.69A5.69,5.69,0,0,1,144.91,325Z" style="fill:#fff"/><polyline points="278.56 321.58 353.36 329.87 284.92 304.09" style="fill:#fff"/><polyline points="256.74 396.42 332.27 504.06 325.79 512.51 249.52 421.59" style="fill:#fff"/><polyline points="243.3 396.42 167.77 504.06 174.25 512.51 250.52 421.59" style="fill:#fff"/><polygon points="447.69 648 402.8 648 406.7 633.16 447.69 648" style="fill:#919191"/><rect x="400.32" y="630.57" width="12.76" height="5.17" transform="translate(1025.19 1061.83) rotate(157.44)" style="fill:#919191"/><polygon points="221.42 295.02 249.93 275.39 278.62 295.02 270.75 314.39 230.75 316 221.42 295.02" style="fill:#fff"/><polygon points="215.02 304.09 285.02 304.09 270.86 346.81 250.02 422.15 229.36 346.81 215.02 304.09"/><polyline points="256.74 396.42 265.37 411.23 250.02 423.15 235.03 411.23 245.37 398.82"/><polygon points="273.16 295.02 271.46 304.31 249.68 401.06 228.08 304.06 226.89 295.02 218.71 295.02 224.13 304.09 249.68 391.89 275.28 304.09 281.33 295.02 273.16 295.02"/><rect x="242.36" y="391.89" width="15.98" height="10.41"/><polygon points="250.09 391.26 228.08 304.06 271.6 303.55 250.09 391.26" style="fill:#fff"/><polygon points="270.13 301.39 250.33 296.33 229.99 301.39 229.99 267.93 250.33 274.31 270.13 267.93 270.13 301.39"/><polygon points="267.06 312.92 250.02 322.34 232.97 312.92 232.97 251.55 267.06 251.55 267.06 312.92"/><path d="M251.18,394.74c2.77-.53,7.3-.59,8.54,1.42,21.77,35.42,99.26,66,113.21,89.71v37.77L251.18,401.39Z"/><path d="M248.86,394.74c-2.77-.53-7.3-.59-8.54,1.42-21.77,35.42-99.26,66-113.21,89.71v37.77L248.86,401.39Z"/><path d="M249.52,395c-2.72-.52-7.17-.58-8.39,1.4-21.39,34.8-97.51,64.85-111.22,88.14v37.11l119.6-120.11Z"/><path d="M250.52,395c2.72-.52,7.17-.58,8.39,1.4,21.39,34.8,97.51,64.85,111.22,88.14v37.11L250.52,401.56Z"/><rect x="238.22" y="391.26" width="23.59" height="5.17" style="fill:#fff"/><polygon points="269.56 298.21 250.33 293.62 230.56 298.21 230.56 267.93 250.33 273.7 269.56 267.93 269.56 298.21" style="fill:#fff"/><polygon points="250.33 279.77 230.56 273.68 230.56 275.74 250.33 281.83 269.56 275.74 269.56 273.68 250.33 279.77"/><polygon points="170.01 500.86 176.66 509.64 187.9 496.24 183.46 481.69 170.01 500.86"/><polygon points="194.83 487.98 198.09 484.09 192.61 468.6 189.66 472.75 194.83 487.98"/><polyline points="278.56 321.58 353.36 329.87 295.54 308.09"/><polygon points="343.41 317.28 346.65 302.11 347.27 277.5 351.04 276.74 353.61 305.12 366.05 278.88 369.42 280.46 359.99 308.36 360.2 308.46 379.65 286.89 381.57 288.63 366.52 311.65 366.66 311.72 383.92 301.95 385.64 303.69 372.48 315.93 372.44 315.93 356.34 339.44 341.36 332.42 330.93 308.83 333.3 309.24 343.41 317.28" style="fill:#919191"/><path d="M349,319.34a6.34,6.34,0,1,0,6.34-6.34A6.34,6.34,0,0,0,349,319.34Zm.65,0a5.69,5.69,0,1,1,5.69,5.69A5.69,5.69,0,0,1,349.67,319.34Z" style="fill:#fff"/><polygon points="53.1 648 97.98 648 94.09 633.16 53.1 648" style="fill:#919191"/><rect x="87.71" y="630.57" width="12.76" height="5.17" transform="translate(250.11 12.35) rotate(22.56)" style="fill:#919191"/><polygon points="330.09 500.86 323.44 509.64 312.2 496.24 316.64 481.69 330.09 500.86"/><polygon points="305.27 487.98 302.01 484.09 307.49 468.6 310.44 472.75 305.27 487.98"/><circle cx="250.52" cy="394.42" r="6.04" style="fill:#919191"/><polygon points="231.94 245.55 227.07 262.19 233.08 279.19 235.52 263.04 237.32 285.92 247.18 259.1 252.93 277.17 259.66 264.64 259.41 279.19 272.59 254.18 264.68 245.55 231.94 245.55" style="opacity:0.1"/><polygon points="231.35 243.55 227.07 262.19 237.08 277.19 239.52 261.04 241.32 283.92 251.18 257.1 256.93 275.17 263.66 262.64 263.41 277.19 276.59 252.18 268.68 243.55 231.35 243.55" style="fill:red"/><g id="force-l"><circle cx="125.91" cy="309.16" r="62.33" style="opacity:0.1"/><circle cx="129.91" cy="307.16" r="62.33" style="fill:#919191;opacity:0.25"/></g><g id="force-r"><circle cx="366.12" cy="310.16" r="62.33" style="opacity:0.1"/><circle cx="370.12" cy="308.16" r="62.33" style="fill:#919191;opacity:0.25"/></g></svg>