<svg id="Layer_8" data-name="Layer 8" xmlns="http://www.w3.org/2000/svg" viewBox="0 0 500 648"><title>hammer</title><g style="opacity:0.1"><polyline points="130.8 408.95 89.87 437.19 169.87 434.16 71.28 448.22 115.87 397.75"/><polygon points="115.87 385.22 130.87 371.69 177.37 354.19 162.9 375.19 118.87 393.69 115.87 385.22"/><polygon points="115.87 397.75 182.28 355.55 194.03 478.91 155.61 427.55 115.87 397.75"/><polyline points="190.97 451.23 433.12 642.22 195.12 481.47"/><polyline points="179.78 455.19 84.04 521.54 111.48 638.45 103.89 549.71 95.87 528.94 186.23 481.47"/><polygon points="202.46 481.47 181.91 481.47 179.78 455.19 190.97 451.23 202.46 481.47"/><polyline points="181.23 356.25 226.59 325.9 312.34 301.41 233.06 331.44 181.23 377.26"/><polygon points="115.87 385.22 145.28 393.72 157.12 389.28 164.12 362.94 177.37 354.19 189.78 360.22 187.65 367.87 168.7 397.75 143.1 410.44 110.28 397.75 115.87 385.22"/><path d="M172.56,361.45c8.47,5.84,30.47,20.23,56.65,28.49,33.45,10.55,60.05,6.77,68.24-9.47l-12.54-3.71L275.67,374c-4.34,2.77-19.46,10.91-53.06,4.28C201.9,374.22,183,366.25,172.56,361.45Z"/><path d="M182.91,366.1c3.11,5,11.36,17.64,23.22,28,15.15,13.23,30,17.36,38,10.71L238.44,400l-4.23-3.56c-2.91.46-12.74,1.26-28.87-9.94A132.4,132.4,0,0,1,182.91,366.1Z"/><polygon points="181.23 377.26 170.12 369.05 181.23 360.26 192.34 369.05 181.23 377.26"/><polygon points="256.18 327.97 296.91 319.4 294.3 306.86 253.1 311.85 256.18 327.97"/><polygon points="265.5 324.25 291.35 318.18 289.81 306.31 263.65 309.71 236.55 313.52 265.5 324.25"/><polygon points="113.59 447.43 155.07 440.85 153.28 426.3 111.75 432.38 113.59 447.43"/><polygon points="124.8 444.72 150.68 438.78 149.19 426.89 123.02 430.17 95.91 433.84 124.8 444.72"/><polygon points="122.55 638.59 110.62 642.22 86.8 568.09 111.34 563.35 122.55 638.59"/><polygon points="114.5 637.49 104.35 626.06 76.54 546.51 110.62 592.44 114.5 637.49"/><polygon points="431.75 631.3 419.23 645.76 360.07 597.99 376.43 579.09 431.75 631.3"/><polygon points="425.72 632.13 414.79 638.13 377.94 612.42 354.62 569.44 393.09 594.81 425.72 632.13"/><polygon points="441.05 649.48 393.4 649.48 402.03 621.73 430.28 629.09 441.05 649.48"/><polygon points="291.3 322.47 318.92 321.03 314.18 292.59 287.69 300.87 291.3 322.47"/><polygon points="305.81 321.71 318.92 321.03 314.18 292.59 301.6 296.52 305.81 321.71"/><polygon points="287.69 300.87 297.96 288.56 298.96 293.32 300.15 299.02 287.69 300.87"/><polygon points="150.31 443.02 161.79 445.11 178.06 443.48 175.09 419.29 148.21 425.84 150.31 443.02"/><polygon points="77.4 649.56 124.55 649.56 120.98 627.9 77.4 620.72 77.4 649.56"/><rect x="168.15" y="451.16" width="34.15" height="10.25" transform="translate(-55.17 26.5) rotate(-7.13)"/><polygon points="160.15 395.73 138.1 405.16 126.06 395.73 126.06 340.37 160.15 334.37 160.15 395.73"/><polygon points="136.78 309.47 138.03 322.97 114.28 304.47 119.53 322.72 100.55 317.31 113.41 333.58 105.4 333.58 115.59 345.83 110.78 346.94 127.53 358.22 161.53 349.47 163.19 346.42 166.78 331.34 160.77 334.24 157.78 319.22 154.18 328.11 136.78 309.47"/><rect x="122.66" y="347.69" width="40.88" height="10" transform="translate(-21.93 9.71) rotate(-3.61)"/><polygon points="160.15 395.73 138.1 405.16 126.06 395.73 126.06 340.37 160.15 334.37 160.15 395.73"/><polygon points="136.78 309.47 138.03 322.97 114.28 304.47 119.53 322.72 100.55 317.31 113.41 333.58 105.4 333.58 115.59 345.83 110.78 346.94 127.53 358.22 161.53 349.47 163.19 346.42 166.78 331.34 160.77 334.24 157.78 319.22 154.18 328.11 136.78 309.47"/><rect x="122.66" y="347.69" width="40.88" height="10" transform="translate(-21.93 9.71) rotate(-3.61)"/></g><polyline points="134.8 406.95 93.87 435.19 173.87 432.16 75.28 446.22 119.87 395.75"/><polygon points="119.87 383.22 134.87 369.69 181.37 352.19 166.9 373.19 122.87 391.69 119.87 383.22" style="fill:red"/><polygon points="119.87 395.75 186.28 353.55 198.03 476.91 159.61 425.55 119.87 395.75"/><polyline points="194.97 449.23 437.12 640.22 199.12 479.47"/><polyline points="183.78 453.19 88.04 519.54 115.48 636.45 107.89 547.71 99.87 526.94 190.23 479.47"/><polygon points="206.46 479.47 185.91 479.47 183.78 453.19 194.97 449.23 206.46 479.47"/><polyline points="185.23 354.25 230.59 323.9 316.34 299.41 237.06 329.44 185.23 375.26"/><polygon points="119.87 383.22 149.28 391.72 161.12 387.28 168.12 360.94 181.37 352.19 193.78 358.22 191.65 365.87 172.7 395.75 147.1 408.44 114.28 395.75 119.87 383.22" style="fill:#919191"/><path d="M176.56,359.45c8.47,5.84,30.47,20.23,56.65,28.49,33.45,10.55,60.05,6.77,68.24-9.47l-12.54-3.71L279.67,372c-4.34,2.77-19.46,10.91-53.06,4.28C205.9,372.22,187,364.25,176.56,359.45Z" style="fill:#919191"/><path d="M186.91,364.1c3.11,5,11.36,17.64,23.22,28,15.15,13.23,30,17.36,38,10.71L242.44,398l-4.23-3.56c-2.91.46-12.74,1.26-28.87-9.94A132.4,132.4,0,0,1,186.91,364.1Z" style="fill:#919191"/><polygon points="185.23 375.26 174.12 367.05 185.23 358.26 196.34 367.05 185.23 375.26" style="fill:#fff"/><polygon points="91.62 521.19 109.62 510.11 113.79 504.19 89.45 520.03 95.79 544.51 96.45 538.28 91.62 521.19" style="fill:#fff"/><polygon points="274.19 520.9 279.2 526.13 288.12 535.44 313.12 549.94 291.62 534.44 274.19 520.9" style="fill:#fff"/><polygon points="172.7 463.66 185.91 479.47 200.46 479.47 207.37 459.01 199.03 475.91 200.46 479.47 185.91 479.47 186.91 476.91 172.7 463.66" style="fill:#fff"/><polygon points="260.18 325.97 300.91 317.4 298.3 304.86 257.1 309.85 260.18 325.97" style="fill:#919191"/><polygon points="269.5 322.25 295.35 316.18 293.81 304.31 267.65 307.71 240.55 311.52 269.5 322.25"/><polygon points="117.59 445.43 159.07 438.85 157.28 424.3 115.75 430.38 117.59 445.43" style="fill:#919191"/><polygon points="128.8 442.72 154.68 436.78 153.19 424.89 127.02 428.17 99.91 431.84 128.8 442.72"/><polygon points="126.55 636.59 114.62 640.22 90.8 566.09 115.34 561.35 126.55 636.59" style="fill:#919191"/><polygon points="118.5 635.49 108.35 624.06 80.54 544.51 114.62 590.44 118.5 635.49"/><polygon points="435.75 629.3 423.23 643.76 364.07 595.99 380.43 577.09 435.75 629.3" style="fill:#919191"/><polygon points="429.72 630.13 418.79 636.13 381.94 610.42 358.62 567.44 397.09 592.81 429.72 630.13"/><polygon points="445.05 647.48 397.4 647.48 406.03 619.73 434.28 627.09 445.05 647.48" style="fill:#919191"/><polygon points="259.51 308.85 279.32 316.2 302.25 310.81 302.07 309.45 279.43 314.76 262.41 308.45 259.51 308.85" style="fill:#fff"/><polygon points="295.3 320.47 322.92 319.03 318.18 290.59 291.69 298.87 295.3 320.47" style="fill:#919191"/><polygon points="113.23 430.04 110.53 430.4 131.54 439.24 154.68 434.85 154.56 433.48 131.72 437.81 113.23 430.04" style="fill:#fff"/><polygon points="154.31 441.02 165.79 443.11 182.06 441.48 179.09 417.29 152.21 423.84 154.31 441.02" style="fill:#919191"/><polygon points="114.94 629.86 111.67 591.89 84.31 555.23 86.53 561.58 109.62 591.85 112.67 627.3 114.94 629.86" style="fill:#fff"/><polygon points="81.4 647.56 128.55 647.56 124.98 625.9 81.4 618.72 81.4 647.56" style="fill:#919191"/><polygon points="376.51 584 407.4 604.37 402.9 599.42 370.62 578.13 391.92 617.38 396.43 620.71 376.51 584" style="fill:#fff"/><polygon points="187.91 387.61 193.09 448.63 191.3 448.86 187.91 387.61" style="fill:#fff"/><rect x="172.15" y="449.16" width="34.15" height="10.25" transform="translate(-54.89 26.98) rotate(-7.13)" style="fill:#919191"/><polygon points="184.43 463.66 172.7 456.37 183.07 446.72 194.85 454.59 184.43 463.66" style="fill:#fff"/><polygon points="164.15 393.73 142.1 403.16 130.06 393.73 130.06 338.37 164.15 332.37 164.15 393.73"/><polygon points="140.78 307.47 142.03 320.97 118.28 302.47 123.53 320.72 104.55 315.31 117.41 331.58 109.4 331.58 119.59 343.83 114.78 344.94 131.53 356.22 165.53 347.47 167.19 344.42 170.78 329.34 164.77 332.24 161.78 317.22 158.18 326.11 140.78 307.47" style="fill:#ccc"/><rect x="126.66" y="345.69" width="40.88" height="10" transform="translate(-21.79 9.96) rotate(-3.61)" style="fill:#919191"/><polygon points="164.15 393.73 142.1 403.16 130.06 393.73 130.06 338.37 164.15 332.37 164.15 393.73"/><polygon points="140.78 307.47 142.03 320.97 118.28 302.47 123.53 320.72 104.55 315.31 117.41 331.58 109.4 331.58 119.59 343.83 114.78 344.94 131.53 356.22 165.53 347.47 167.19 344.42 170.78 329.34 164.77 332.24 161.78 317.22 158.18 326.11 140.78 307.47" style="fill:red"/><rect x="126.66" y="345.69" width="40.88" height="10" transform="translate(-21.79 9.96) rotate(-3.61)" style="fill:#fff"/><polygon points="152.56 341.54 160.33 359.5 160.33 340.72 152.56 341.54" style="fill:#919191"/><g id="hammer"><g style="opacity:0.1"><rect x="301.31" y="277.73" width="7.04" height="57.61" transform="translate(-46.3 54.36) rotate(-9.48)"/><rect x="261.83" y="241.8" width="72.03" height="42.94" transform="translate(634.97 473.92) rotate(170.52)"/></g><rect x="303.31" y="276.73" width="7.04" height="57.61" transform="translate(-46.11 54.68) rotate(-9.48)"/><rect x="263.83" y="240.8" width="72.03" height="42.94" transform="translate(638.78 471.61) rotate(170.52)"/><polygon points="287.31 282.63 273.03 285.02 267.09 249.48 281.38 247.09 281.24 246.3 265.63 248.91 271.82 286.03 287.44 283.42 287.31 282.63" style="fill:#fff"/><polygon points="312.27 241.12 312.4 241.91 326.69 239.53 332.62 275.07 318.34 277.45 318.47 278.24 334.09 275.63 327.89 238.51 312.27 241.12" style="fill:#fff"/></g><polygon points="309.81 319.71 322.92 319.03 318.18 290.59 305.6 294.52 309.81 319.71" style="fill:#919191"/><polygon points="291.69 298.87 301.96 286.56 302.96 291.32 304.15 297.02 291.69 298.87" style="fill:#919191"/></svg>