<svg id="Layer_8" data-name="Layer 8" xmlns="http://www.w3.org/2000/svg" viewBox="0 0 500 648"><title>powers</title><g id="powers-belt"><path d="M245.06,313.16c-3.69,9.6-13.72,33.91-30.66,55.51-21.64,27.6-45.73,39.51-61.65,30.74L161,389.26l6.08-7.48c5.14-.17,22.23-2,46.2-26.44C228.06,340.27,239.17,323,245.06,313.16Z" style="opacity:0.1"/><path d="M245.21,314.16c-4.32,5.33-15.64,18.74-30,29.89-18.36,14.25-34.2,19-40.61,12.29l12-9c2.8.39,12.42.94,31.27-11.22A198,198,0,0,0,245.21,314.16Z" style="opacity:0.1"/><path d="M249.06,311.16c-3.69,9.6-13.72,33.91-30.66,55.51-21.64,27.6-45.73,39.51-61.65,30.74L165,387.26l6.08-7.48c5.14-.17,22.23-2,46.2-26.44C232.06,338.27,243.17,321,249.06,311.16Z"/><path d="M249.21,312.16c-4.32,5.33-15.64,18.74-30,29.89-18.36,14.25-34.2,19-40.61,12.29l12-9c2.8.39,12.42.94,31.27-11.22A198,198,0,0,0,249.21,312.16Z"/></g><g id="powers-hair"><path d="M214,183.22c5.1,5,18.92,18.74,34.56,15.86,15.18-2.79,29.84-20.4,29.2-37.13-1.5-39-48.77-54.47-47-84.92.43-7.45,10.05-21.75,33.3-21.75a51.76,51.76,0,0,0-23.19-2.46c-23.43,3-36.36,23.75-39.7,29C181.12,113.31,189.53,159,214,183.22Z" style="opacity:0.1"/><path d="M218,181.22c5.1,5,18.92,18.74,34.56,15.86,15.18-2.79,29.84-20.4,29.2-37.13-1.5-39-48.77-54.47-47-84.92.43-7.45,10.05-21.75,33.3-21.75a51.76,51.76,0,0,0-23.19-2.46c-23.43,3-36.36,23.75-39.7,29C185.12,111.31,193.53,157,218,181.22Z" style="fill:red"/></g><g style="opacity:0.1"><path d="M203.12,217.33l75.33-41.56c-2.24,10.48,1.66,7.31-2.08,19.61s-15.13,40.09-16.17,46.83c-2.41,15.78-8,58.51-5.26,74.77Z"/><polyline points="211.22 232.92 152.75 333.34 203.12 217.33"/><polygon points="267.61 185.75 277.69 203.16 313.37 264.77 338.7 212.22 338.7 207.44 313.71 251.71 278.45 175.77 267.61 185.75 267.61 185.75"/><polygon points="250.8 322.25 343.87 346.72 219.56 453.23 361.34 342.74 254.29 299.88 250.8 322.25"/><path d="M246,299.88c-.82,6.42-2.35,13.29-1.17,20.3s34.49,84.53,42.74,106.76L214.21,580.32,298,430,263,317"/><polygon points="225.41 557.04 242.63 607.51 214.41 578.96 225.41 557.04"/><polygon points="237.34 437.72 236.45 491.04 219.56 453.23 237.34 437.72"/><polygon points="163.89 334.72 147.47 332.69 146.3 303.05 175.69 305.83 167.82 327.33 163.89 334.72"/><polygon points="183.05 319.38 185.28 320.3 163.89 334.72 169.72 320.87 183.05 319.38"/><polygon points="146.31 304.2 141.69 286.83 144.07 286.27 153.64 304.02 153.15 276.25 155.7 275.8 160.79 304.98 167.79 275.8 171.48 276.25 168.04 305.08 185.32 282.43 188.11 285.08 175.07 307.04 162.12 314.15 146.31 304.2"/><polygon points="337.25 210.11 337.25 204.96 345.34 201.19 379.25 198.11 356.74 204.55 337.25 210.11"/><polygon points="346.16 192.69 345.62 191.26 337.25 204.96 345.34 201.19 346.16 192.69"/><rect x="217.78" y="550.84" width="21.38" height="12.24" transform="translate(334.93 -35.55) rotate(32.49)"/><rect x="230.65" y="433.5" width="21.38" height="12.24" transform="translate(476.7 -3.23) rotate(56.75)"/><rect x="326.56" y="208.15" width="21.38" height="12.24" transform="translate(126.8 -125.37) rotate(25.79)"/><rect x="231.59" y="298.56" width="34.96" height="12.24" transform="translate(-118.97 165.35) rotate(-30)"/><polygon points="271.98 205.9 254.94 215.33 237.89 205.9 237.89 144.54 271.98 144.54 271.98 205.9"/></g><path d="M207.12,215.33l75.33-41.56c-2.24,10.48,1.66,7.31-2.08,19.61s-15.13,40.09-16.17,46.83c-2.41,15.78-8,58.51-5.26,74.77Z"/><polyline points="215.22 230.92 156.75 331.34 207.12 215.33"/><polygon points="271.61 183.75 281.69 201.16 317.37 262.77 342.7 210.22 342.7 205.44 317.71 249.71 282.45 173.77 271.61 183.75 271.61 183.75"/><polygon points="254.8 320.25 347.87 344.72 223.56 451.23 365.34 340.74 258.29 297.88 254.8 320.25"/><path d="M250,297.88c-.82,6.42-2.35,13.29-1.17,20.3s34.49,84.53,42.74,106.76L218.21,578.32,302,428,267,315"/><polygon points="229.41 555.04 246.63 605.51 218.41 576.96 229.41 555.04"/><polygon points="241.34 435.72 240.45 489.04 223.56 451.23 241.34 435.72"/><polygon points="167.89 332.72 151.47 330.69 150.3 301.05 179.69 303.83 171.82 325.33 167.89 332.72"/><polygon points="187.05 317.38 189.28 318.3 167.89 332.72 173.72 318.87 187.05 317.38"/><polygon points="150.31 302.2 145.69 284.83 148.07 284.27 157.64 302.02 157.15 274.25 159.7 273.8 164.79 302.98 171.79 273.8 175.48 274.25 172.04 303.08 189.32 280.43 192.11 283.08 179.07 305.04 166.12 312.15 150.31 302.2"/><polygon points="341.25 208.11 341.25 202.96 349.34 199.19 383.25 196.11 360.74 202.55 341.25 208.11"/><polygon points="350.16 190.69 349.62 189.26 341.25 202.96 349.34 199.19 350.16 190.69"/><rect x="221.78" y="548.84" width="21.38" height="12.24" transform="translate(334.48 -38.01) rotate(32.49)" style="fill:#919191"/><rect x="234.65" y="431.5" width="21.38" height="12.24" transform="translate(476.83 -7.48) rotate(56.75)" style="fill:#919191"/><rect x="330.56" y="206.15" width="21.38" height="12.24" transform="translate(126.33 -127.31) rotate(25.79)" style="fill:#919191"/><circle cx="163.65" cy="317.38" r="7.95"/><path d="M163.65,311a6.34,6.34,0,1,0,6.34,6.34A6.34,6.34,0,0,0,163.65,311Zm0,12a5.69,5.69,0,1,1,5.69-5.69A5.69,5.69,0,0,1,163.65,323.07Z" style="fill:#fff"/><polygon points="264.65 238.65 256.03 297.38 215.22 230.92 254.94 285.47 264.65 238.65" style="fill:#fff"/><rect x="235.59" y="296.56" width="34.96" height="12.24" transform="translate(-117.44 167.09) rotate(-30)" style="fill:#919191"/><polygon points="271.26 324.53 265.76 311.15 269.88 324.17 271.26 324.53" style="fill:#fff"/><polygon points="207.12 215.33 207.91 236.16 185.98 264.15 186.62 262.66 206.44 235.83 204.69 220.91 207.12 215.33" style="fill:#fff"/><polygon points="285.22 182.34 284.44 192.34 293.24 196.92 293.02 195.94 285.31 191.85 285.18 182.89 285.22 182.34" style="fill:#fff"/><polygon points="289.59 419.65 295.03 410.55 296.98 411.73 294.03 407.72 289.59 419.65" style="fill:#fff"/><polygon points="289.59 430.22 293.49 441.84 295.73 439.35 292.85 444.5 289.59 430.22" style="fill:#fff"/><polygon points="347.9 344.46 347.53 334.34 351.9 335.36 345.56 332.82 347.9 344.46" style="fill:#fff"/><polygon points="348 345.45 350.59 352.27 351.81 351.32 348.64 353.8 348 345.45" style="fill:#fff"/><polygon points="275.98 203.9 258.94 213.33 241.89 203.9 241.89 142.54 275.98 142.54 275.98 203.9" style="fill:#fff"/><polygon points="251.36 120.06 236.13 159.24 240.57 170.7 242.78 155.72 253.19 178.93 258.44 152.58 263.43 169.88 271.78 158.43 273.8 174.89 276.74 149 273.98 143.54 251.36 120.06" style="opacity:0.1"/><polygon points="284.04 190.06 257.52 202.11 231 190.06 231 152.05 258.36 177.93 284.04 152.05 284.04 190.06" style="opacity:0.1"/><polygon points="286.04 190.06 259.52 202.11 233 190.06 233 152.05 260.36 177.93 286.04 152.05 286.04 190.06"/><polygon points="233 176.66 233 184.06 259.52 196.11 286.04 184.06 286.04 176.66 259.52 191.86 233 176.66" style="fill:#fff"/><polygon points="250.87 118.06 233 152.05 242.57 169.7 244.78 154.72 255.19 177.93 260.44 151.58 265.43 168.88 273.78 157.43 275.8 173.89 281.43 156.07 275.98 142.54 250.87 118.06" style="fill:red"/><g id="powers-flame"><path d="M365.9,193.06c-1.19,1.21-4.41,4.49-8.1,3.75s-7.06-5-6.94-9.09c.28-9.46,11.37-13.07,10.89-20.46-.12-1.81-2.41-5.31-7.88-5.37a11.76,11.76,0,0,1,5.45-.53c5.52.79,8.6,5.86,9.4,7.15C373.49,176.2,371.6,187.26,365.9,193.06Z" style="opacity:0.1"/><path d="M369.9,191.06c-1.19,1.21-4.41,4.49-8.1,3.75s-7.06-5-6.94-9.09c.28-9.46,11.37-13.07,10.89-20.46-.12-1.81-2.41-5.31-7.88-5.37a11.76,11.76,0,0,1,5.45-.53c5.52.79,8.6,5.86,9.4,7.15C377.49,174.2,375.6,185.26,369.9,191.06Z" style="fill:red"/></g></svg>