<svg id="Layer_8" data-name="Layer 8" xmlns="http://www.w3.org/2000/svg" viewBox="0 0 500 648"><title>punch</title><g id="punch-arm"><polygon points="386.13 450.45 358.3 444.44 354.72 454.47 354.75 454.75 332.11 443.91 329.51 451.38 239.55 410.81 230.39 425.6 327.58 456.94 324.38 466.12 370.37 475.8 370.38 475.76 377.01 477.14 386.13 450.45" style="opacity:0.1"/><polyline points="243.55 408.81 381.57 471.05 234.39 423.6"/><polygon points="274.95 437.2 275.54 423.65 278.53 425.14 274.95 437.2" style="fill:#fff"/><polygon points="285.76 440.76 294.38 432.05 291.76 430.98 285.76 440.76" style="fill:#fff"/><polygon points="378.52 462.37 378.57 462.23 336.11 441.91 328.38 464.12 374.37 473.8 378.52 462.37" style="fill:#919191"/><polygon points="381.01 475.14 361.31 471.05 358.72 452.47 362.3 442.44 390.13 448.45 381.01 475.14"/></g><g style="opacity:0.1"><path d="M219.33,549.32,236,537.79c1-17.21-21.68-22.89-13-26.73H185.33l-40.52-3.92L112,488.56a83.8,83.8,0,0,0,10.2,17.91c3.34,4.48,10.33,13.84,21,19.8C165.09,538.54,192.64,529.07,219.33,549.32Z"/><polyline points="165.85 417.33 140.31 459.86 101.97 409.26 137.92 444 157.4 395.26"/><polygon points="153.48 384.7 153.33 384.65 153.42 384.87 153.48 384.7"/><polygon points="189.79 397.85 188.93 400.07 154.09 386.63 173.96 438.49 183.97 500.76 236.97 414.94 189.79 397.85"/><polyline points="185.33 511.07 423.33 644.07 191.5 488.56"/><polyline points="181.63 486.17 92 529.28 73.13 640.81 101.97 541.36 185.33 511.07"/><polygon points="185.33 511.07 186.84 505.4 194.69 483.41 179 483.41 185.33 511.07"/><path d="M192.18,489c27.48,17.08,57.48,32.76,80.48,29.74l-48.51,27.32c-11.43-2-39.65-35.65-40.39-54.21-.08-2,.22-2.92,2.41-2.86C187.47,489,189.78,490.94,192.18,489Z"/><path d="M180.3,486.56c-28.5,16.51-48.39,14.19-68.33,2l19.94,19.35c11,0,48.66-3,53.42-18C186.26,487,186.5,491.59,180.3,486.56Z"/><polyline points="208.05 404.46 242.23 406.48 232.5 422.24 208.05 404.46"/><polygon points="155.9 388.23 155.96 388.07 155.82 388.02 155.9 388.23"/><polygon points="239.55 408.58 207.36 406.69 190.16 400.45 189.35 402.54 156.53 389.88 175.25 438.74 184.68 497.39 230.37 423.41 230.39 423.42 239.55 408.58"/><path d="M181.74,488.56c-28.5,16.51-48.39,14.19-68.33,2l19.94,19.35c11,0,48.66-3,53.42-18C187.7,489,187.94,493.59,181.74,488.56Z"/><polygon points="203.99 471.83 175.51 467.09 176.84 478.26 171.96 488.4 200.44 493.14 199.12 481.97 203.99 471.83"/><path d="M192.18,489c-2.4,1.94-4.69.06-6,0,26.58,16.45,57.95,34.84,79.69,32l-43.47,24.48a7.42,7.42,0,0,0,1.75.59l48.51-27.32C249.67,521.75,219.67,506.07,192.18,489Z"/><rect x="55.32" y="613.93" width="42.71" height="20.33" transform="translate(702.48 685.37) rotate(102.6)"/><polygon points="83.31 641.07 83.31 650.1 32.02 650.1 44.25 624.1 66.26 624.1 83.31 641.07"/><rect x="364.77" y="611.15" width="42.71" height="20.33" transform="translate(379.17 1352.81) rotate(-147.6)"/><polygon points="93.97 407.81 93.97 407.81 117.44 443.44 135.45 428.32 100.91 396.46 93.97 407.81"/><polygon points="114.43 409.69 93.97 407.81 91.38 389.23 94.96 379.19 122.79 385.21 114.43 409.69"/><polygon points="390.9 650.1 442.18 650.1 429.96 624.1 409.61 624.18 400.17 630.57 390.9 637.1 390.9 650.1"/><polygon points="211.05 414.18 202.01 423.6 176.96 414.18 176.96 352.82 211.05 352.82 211.05 414.18"/><rect x="174.02" y="372.4" width="41.15" height="25.63"/><polygon points="208.13 358.46 201.5 362.68 210.43 341.08 202.01 347.14 208.08 327.02 197.19 338.3 198.29 318 189.91 340.46 188.22 329.41 184.94 352.98 190.16 353 192.27 353 192.35 363.12 196.73 358.2 194.01 380.8 208.13 358.46"/></g><path d="M223.33,547.32,240,535.79c1-17.21-21.68-22.89-13-26.73H189.33l-40.52-3.92L116,486.56a83.8,83.8,0,0,0,10.2,17.91c3.34,4.48,10.33,13.84,21,19.8C169.09,536.54,196.64,527.07,223.33,547.32Z" style="fill:red"/><polyline points="169.85 415.33 144.31 457.86 105.97 407.26 141.92 442 161.4 393.26"/><polygon points="157.48 382.7 157.33 382.65 157.42 382.87 157.48 382.7"/><polygon points="193.79 395.85 192.93 398.07 158.09 384.63 177.96 436.49 187.97 498.76 240.97 412.94 193.79 395.85"/><polyline points="189.33 509.07 427.33 642.07 195.5 486.56"/><polyline points="185.63 484.17 96 527.28 77.13 638.81 105.97 539.36 189.33 509.07"/><polygon points="189.33 509.07 190.84 503.4 198.69 481.41 183 481.41 189.33 509.07"/><path d="M196.18,487c27.48,17.08,57.48,32.76,80.48,29.74l-48.51,27.32c-11.43-2-39.65-35.65-40.39-54.21-.08-2,.22-2.92,2.41-2.86C191.47,487,193.78,488.94,196.18,487Z" style="fill:#fff"/><path d="M184.3,484.56c-28.5,16.51-48.39,14.19-68.33,2l19.94,19.35c11,0,48.66-3,53.42-18C190.26,485,190.5,489.59,184.3,484.56Z"/><polyline points="212.05 402.46 246.23 404.48 236.5 420.24 212.05 402.46"/><polygon points="159.9 386.23 159.96 386.07 159.82 386.02 159.9 386.23" style="fill:#fff"/><polygon points="243.55 406.58 211.36 404.69 194.16 398.45 193.35 400.54 160.53 387.88 179.25 436.74 188.68 495.39 234.37 421.41 234.39 421.42 243.55 406.58" style="fill:#fff"/><path d="M185.74,486.56c-28.5,16.51-48.39,14.19-68.33,2l19.94,19.35c11,0,48.66-3,53.42-18C191.7,487,191.94,491.59,185.74,486.56Z" style="fill:#fff"/><polygon points="207.99 469.83 179.51 465.09 180.84 476.26 175.96 486.4 204.44 491.14 203.12 479.97 207.99 469.83"/><path d="M196.18,487c-2.4,1.94-4.69.06-6,0,26.58,16.45,57.95,34.84,79.69,32l-43.47,24.48a7.42,7.42,0,0,0,1.75.59l48.51-27.32C253.67,519.75,223.67,504.07,196.18,487Z"/><polygon points="168.08 390.8 193.54 479.65 234.49 406.05 229.14 405.73 194.08 474.99 173.45 392.87 168.08 390.8"/><polygon points="139.52 451.13 139.53 440.26 141.54 442.15 139.52 451.13" style="fill:#fff"/><polygon points="151.3 446.38 143.81 438.49 142.79 440.79 151.3 446.38" style="fill:#fff"/><polygon points="283.05 559.89 284.74 547.32 287.5 549.18 283.05 559.89" style="fill:#fff"/><polygon points="296.43 567.52 304.96 560.94 302.5 559.53 296.43 567.52" style="fill:#fff"/><polygon points="104.74 543.09 94.24 545.35 94.67 542.77 104.74 543.09" style="fill:#fff"/><polygon points="108.07 538.47 107.49 523.84 104 525.45 108.07 538.47" style="fill:#fff"/><rect x="59.32" y="611.93" width="42.71" height="20.33" transform="translate(705.4 679.03) rotate(102.6)" style="fill:#919191"/><polygon points="87.31 639.07 87.31 648.1 36.02 648.1 48.25 622.1 70.26 622.1 87.31 639.07"/><rect x="368.77" y="609.15" width="42.71" height="20.33" transform="translate(387.62 1351.27) rotate(-147.6)" style="fill:#919191"/><polygon points="97.97 405.81 97.97 405.81 121.44 441.44 139.45 426.32 104.91 394.46 97.97 405.81" style="fill:#919191"/><polygon points="118.43 407.69 97.97 405.81 95.38 387.23 98.96 377.19 126.79 383.21 118.43 407.69"/><polygon points="394.9 648.1 446.18 648.1 433.96 622.1 413.61 622.18 404.17 628.57 394.9 635.1 394.9 648.1"/><polygon points="215.05 412.18 206.01 421.6 180.96 412.18 180.96 350.82 215.05 350.82 215.05 412.18"/><rect x="178.02" y="370.4" width="41.15" height="25.63"/><polygon points="212.13 356.46 205.5 360.68 214.43 339.08 206.01 345.14 212.08 325.02 201.19 336.3 202.29 316 193.91 338.46 192.22 327.41 188.94 350.98 194.16 351 196.27 351 196.35 361.12 200.73 356.2 198.01 378.8 212.13 356.46" style="fill:red"/><rect x="179.44" y="376.6" width="39.73" height="17.23" style="fill:#fff"/><polygon points="219.17 381.58 185.72 381.58 189.67 385.22 219.17 385.22 219.17 381.58"/></svg>