<svg id="Layer_8" data-name="Layer 8" xmlns="http://www.w3.org/2000/svg" viewBox="0 0 500 648"><title>robot</title><g style="opacity:0.1"><path d="M138.8,613.15a186.46,186.46,0,0,1,38-79.32c7.56-9.24,25-28.38,69.14-26.32l-63.63-5.46a184.45,184.45,0,0,0-17.64,22.06,187.48,187.48,0,0,0-31.5,87.17Z"/><path d="M358.22,608.52A187.15,187.15,0,0,0,327,524.12C282.6,458.95,213.8,446.2,201.81,444.19l2.07,24c14.84,2.77,69.43,14.8,111,65.61a186,186,0,0,1,36.91,74.7Z"/><polygon points="208.8 281.66 186.48 277.57 187.58 271.55 184.02 272.9 183.27 276.98 182.4 281.74 181.65 285.82 184.5 288.34 185.6 282.32 207.93 286.42 208.8 281.66"/><polygon points="280.68 281.66 303.01 277.57 301.9 271.55 305.46 272.9 306.21 276.98 307.08 281.74 307.83 285.82 304.98 288.34 303.88 282.32 281.55 286.42 280.68 281.66"/><path d="M245.91,283.83c-71.59,0-129.62,43-129.62,54.94L183,508.95h125.9l66.67-170.17C375.54,326.87,317.5,283.83,245.91,283.83Z"/><path d="M245.91,291c-69.3,0-125.48,41.66-125.48,53.19L185,508.95H306.86L371.4,344.21C371.4,332.68,315.22,291,245.91,291Z"/><polygon points="179.84 650.39 97.89 650.39 106.6 603.27 171.13 603.27 179.84 650.39"/><polygon points="396.69 650.39 314.75 650.39 323.46 603.27 387.99 603.27 396.69 650.39"/><path d="M120.43,331.13c-9.85,7.12-70,56.68-81,134.79a184.8,184.8,0,0,0,1.87,62.29h9.42a184.12,184.12,0,0,1,3.89-59c14.76-64,67.08-81.59,84.22-72.85Z"/><path d="M43.09,510.8c-41.59,14-54.23,83,2.3,102.06-19.88-28.54.94-47,14.55-51.92,12.89-4.66,41.56-2.16,43,32.6C136.45,544.2,84.68,496.82,43.09,510.8Z"/><path d="M441.11,527.41h9.5a184.74,184.74,0,0,0,1.71-61.49c-10.94-78.1-67-120-76.82-127.14l-8.8,22.46c12.07,9.06,55.68,44,70.44,108A184.06,184.06,0,0,1,441.11,527.41Z"/><path d="M452.59,510c41.59,14,54.23,83-2.3,102.06,19.88-28.54-.94-47-14.55-51.92-12.89-4.66-41.56-2.16-43,32.6C359.23,543.4,411,496,452.59,510Z"/><polygon points="302.3 331.75 189.53 331.75 201.5 270.06 290.32 270.06 302.3 331.75"/><circle cx="245.91" cy="300.9" r="15.57"/><path d="M254.48,301.94h3.72a12.28,12.28,0,0,0-12.28-12.28V294A12.29,12.29,0,0,1,254.48,301.94Z"/><circle cx="173.87" cy="451.81" r="3.94"/><circle cx="185.59" cy="483.99" r="3.94"/><rect x="175.75" y="463.92" width="7.97" height="7.97" transform="translate(-149.19 89.69) rotate(-20)"/><polygon points="154.78 344.21 201.65 508.95 290.17 508.95 337.05 344.21 154.78 344.21"/></g><path d="M143.12,611a186.46,186.46,0,0,1,38-79.32c7.56-9.24,25-28.38,69.14-26.32l-63.63-5.46A184.45,184.45,0,0,0,169,522a187.48,187.48,0,0,0-31.5,87.17Z"/><path d="M362.54,606.36A187.15,187.15,0,0,0,331.34,522C286.92,456.79,218.12,444,206.13,442l2.07,24c14.84,2.77,69.43,14.8,111,65.61a186,186,0,0,1,36.91,74.7Z"/><polygon points="213.12 279.5 190.8 275.41 191.9 269.39 188.34 270.74 187.59 274.82 186.72 279.58 185.97 283.66 188.82 286.18 189.92 280.17 212.25 284.26 213.12 279.5" style="fill:red"/><polygon points="285 279.5 307.33 275.41 306.22 269.39 309.78 270.74 310.53 274.82 311.4 279.58 312.15 283.66 309.3 286.18 308.2 280.17 285.87 284.26 285 279.5" style="fill:red"/><path d="M250.23,281.67c-71.59,0-129.62,43-129.62,54.94l66.67,170.17h125.9l66.67-170.17C379.86,324.71,321.82,281.67,250.23,281.67Z"/><path d="M250.23,288.86c-69.3,0-125.48,41.66-125.48,53.19l64.54,164.74H311.18L375.72,342C375.72,330.52,319.54,288.86,250.23,288.86Z" style="fill:#fff"/><polygon points="184.16 648.23 102.21 648.23 110.92 601.12 175.45 601.12 184.16 648.23"/><polygon points="401.01 648.23 319.07 648.23 327.78 601.12 392.31 601.12 401.01 648.23"/><path d="M124.75,329c-9.85,7.12-70,56.68-81,134.79A184.8,184.8,0,0,0,45.66,526h9.42a184.12,184.12,0,0,1,3.89-59c14.76-64,67.08-81.59,84.22-72.85Z"/><path d="M47.41,508.64c-41.59,14-54.23,83,2.3,102.06-19.88-28.54.94-47,14.55-51.92,12.89-4.66,41.56-2.16,43,32.6C140.77,542,89,494.66,47.41,508.64Z" style="fill:#8e8e8e"/><path d="M445.43,525.24h9.5a184.74,184.74,0,0,0,1.71-61.49c-10.94-78.1-67-120-76.82-127.14L371,359.07c12.07,9.06,55.68,44,70.44,108A184.06,184.06,0,0,1,445.43,525.24Z"/><path d="M456.91,507.83c41.59,14,54.23,83-2.3,102.06,19.88-28.54-.94-47-14.55-51.92-12.89-4.66-41.56-2.16-43,32.6C363.55,541.24,415.32,493.86,456.91,507.83Z" style="fill:#8e8e8e"/><polygon points="306.62 329.59 193.85 329.59 205.82 267.9 294.64 267.9 306.62 329.59"/><circle cx="250.23" cy="298.74" r="15.57" style="fill:#fff"/><path d="M258.8,299.78h3.72a12.28,12.28,0,0,0-12.28-12.28v4.35A12.29,12.29,0,0,1,258.8,299.78Z"/><circle cx="178.2" cy="449.65" r="3.94" style="fill:red"/><circle cx="189.91" cy="481.83" r="3.94" style="fill:red"/><rect x="180.07" y="461.76" width="7.97" height="7.97" transform="translate(-148.19 91.04) rotate(-20)" style="fill:red"/><polygon points="159.1 342.05 205.97 506.79 294.49 506.79 341.37 342.05 159.1 342.05"/></svg>