<svg id="Layer_8" data-name="Layer 8" xmlns="http://www.w3.org/2000/svg" viewBox="0 0 500 648"><title>scientist</title><g style="opacity:0.1"><rect x="135.8" y="317.3" width="70.82" height="142" rx="13.63" ry="13.63" transform="translate(-52.7 27.81) rotate(-8.05)"/><path d="M374.57,514.22s-86.35,16-164-100.45l.46-3,23.65-88.8-6.31,1.71c6.31-17.44,8.85-23.77,15.35-30.56-2.94-5-9.81-6.2-13-6.55l-6.61,38.26-.86,5.36-16.42,57.09L164.18,606C245.85,608.12,381.39,553.94,374.57,514.22Z"/><path d="M136,348.67l98.67-26.73c-29.68,52.42-26.47,119.27-38,144.73C188.89,483.88,154,417.17,136,348.67Z"/><polyline points="224.11 324.81 213.4 380.63 230.67 337 237.22 316.88 224.11 324.81"/><polygon points="280.65 415.05 277.39 428.6 217.1 364.38 234.75 321.93 280.65 415.05"/><path d="M173.89,345.22l52.33-14.5,4.23-40.23c-7.68,4.51-19.28,7.34-37.23,9.73-20,2.66-43.67-4-24-6.33Z"/><circle cx="215.85" cy="312.35" r="7.3"/><path d="M219.79,313.85H222a7.3,7.3,0,0,0-7.3-7.3v2.59A7.31,7.31,0,0,1,219.79,313.85Z"/><rect x="275.18" y="248.6" width="14.67" height="179.82" transform="translate(496.49 -47.01) rotate(68.88)"/><rect x="211.18" y="326.27" width="22.96" height="67.11" transform="translate(478.08 22.47) rotate(68.88)"/><rect x="192.06" y="390.61" width="38.62" height="7.47" transform="translate(503.06 55.08) rotate(68.88)"/><rect x="362.58" y="298.92" width="8.23" height="15.47" transform="translate(520.61 -145.91) rotate(68.88)"/><polyline points="265.22 348.67 261.22 333.22 289.22 325.88 291.56 345.88"/><polygon points="298.89 335.88 255.89 346 267.69 399.88 280.65 415.05 298.89 335.88"/><polyline points="190.56 384.88 215.63 374.98 219.93 374.12 221.94 378.78 217.57 380.63 225.31 403.22 192.56 410.55 190.56 384.88"/><polygon points="323.89 593.88 361.35 575.22 368.56 630.21 389.22 621.88 395.22 650.55 347.89 650.55 323.89 593.88"/><polygon points="124.01 592.4 92.34 630.13 99.22 627.88 100.56 650.55 51.22 650.55 83.75 577.59 124.01 592.4"/><path d="M141.35,300.55c-7.26-5,16.73-9.27,27.87-6.67,2.71,12.69,7,31.77,12.79,54.79,30.69,121,55.32,153.89,43.21,198.55-5.6,20.64-20.55,49.34-64.67,77.33-100.51-20.63-121.06-41.28-122-56,0,0,45.86-32.81,76.67-77.33C146.85,445.51,143.37,388.5,136,348.67l20-5.42C155.47,337.47,162.72,315.22,141.35,300.55Z"/><line x1="194.13" y1="376.58" x2="127.35" y2="409.88"/><line x1="193.13" y1="377.58" x2="126.35" y2="410.88"/><polyline points="148.91 398.48 166.26 341.21 135.02 337.88 135.02 349.67 99.68 448.34"/><path d="M363,299.54a30.15,30.15,0,0,1,3.4,6.67,31.25,31.25,0,0,1,1.94,7l1-.34a51.12,51.12,0,0,0-2.18-7,52,52,0,0,0-3.18-6.75Z"/><polyline points="136.02 442.6 211.37 432.05 194.13 376.31 125.17 412.33"/><polyline points="100.4 447.34 210.23 430.43 194.13 378.56 123.19 413.94"/><polygon points="144.53 338.89 173.89 345.22 155.32 338.89 144.53 338.89"/><path d="M140.37,384.28c-26.08,5.34-47.53.55-47.91-10.69-.33-9.77,15.4-21.21,36.66-27.53-25.22,6.21-44.69,20-44.29,31.93.42,12.6,22.94,18.27,50.3,12.67,22.53-4.61,41.31-15.43,47-26.14C174.53,372.73,158.76,380.52,140.37,384.28Z"/><path d="M123.4,348q3.15-1.16,6.5-2.16c-24.57,6.05-43.55,19.51-43.16,31.11.41,12.27,22.35,17.8,49,12.35,22-4.49,40.25-15,45.79-25.47-7.38,8-22.75,15.59-40.67,19.25-25.41,5.2-46.31.54-46.68-10.41-.28-8.5,11.88-18.28,29.21-24.67"/><rect x="190.14" y="313.97" width="26.97" height="96.83" rx="5.91" ry="5.91" transform="translate(468.29 41.86) rotate(68.88)"/><rect x="221.92" y="331.95" width="22.96" height="42.19" transform="translate(478.62 8.11) rotate(68.88)"/></g><rect x="139.8" y="315.3" width="70.82" height="142" rx="13.63" ry="13.63" transform="translate(-52.38 28.35) rotate(-8.05)" style="fill:#8e8e8e"/><path d="M378.57,512.22s-86.35,16-164-100.45l.46-3,23.65-88.8-6.31,1.71c6.31-17.44,8.85-23.77,15.35-30.56-2.94-5-9.81-6.2-13-6.55l-6.61,38.26-.86,5.36-16.42,57.09L168.18,604C249.85,606.12,385.39,551.94,378.57,512.22Z" style="fill:red"/><path d="M140,346.67l98.67-26.73c-29.68,52.42-26.47,119.27-38,144.73C192.89,481.88,158,415.17,140,346.67Z" style="fill:#fff"/><polyline points="228.11 322.81 217.4 378.63 234.67 335 241.22 314.88 228.11 322.81" style="fill:red"/><polygon points="284.65 413.05 281.39 426.6 221.1 362.38 238.75 319.93 284.65 413.05" style="fill:red"/><path d="M177.89,343.22l52.33-14.5,4.23-40.23c-7.68,4.51-19.28,7.34-37.23,9.73-20,2.66-43.67-4-24-6.33Z" style="fill:red"/><rect x="279.18" y="246.6" width="14.67" height="179.82" transform="translate(497.18 -52.02) rotate(68.88)"/><rect x="215.18" y="324.27" width="22.96" height="67.11" transform="translate(478.77 17.46) rotate(68.88)"/><rect x="196.06" y="388.61" width="38.62" height="7.47" transform="translate(503.75 50.07) rotate(68.88)"/><rect x="366.58" y="296.92" width="8.23" height="15.47" transform="translate(521.31 -150.92) rotate(68.88)"/><polyline points="269.22 346.67 265.22 331.22 293.22 323.88 295.56 343.88" style="fill:#8e8e8e"/><polygon points="302.89 333.88 259.89 344 271.69 397.88 284.65 413.05 302.89 333.88" style="fill:red"/><polygon points="219.1 336.28 215.8 351.73 185 346.91 178.27 283.88 219.1 272.88 219.1 336.28" style="opacity:0.1"/><polygon points="221.1 335.28 217.8 350.73 187 345.91 180.27 282.88 221.1 271.88 221.1 335.28"/><circle cx="199.85" cy="311.85" r="7.3" style="fill:#fff"/><circle cx="218.85" cy="311.35" r="7.3" style="opacity:0.1"/><path d="M204.21,313.56h2.21a7.3,7.3,0,0,0-7.3-7.3v2.59A7.31,7.31,0,0,1,204.21,313.56Z"/><circle cx="219.85" cy="310.35" r="7.3" style="fill:#fff"/><path d="M223.79,311.85H226a7.3,7.3,0,0,0-7.3-7.3v2.59A7.31,7.31,0,0,1,223.79,311.85Z"/><polyline points="194.56 382.88 219.63 372.98 223.93 372.12 225.94 376.78 221.57 378.63 229.31 401.22 196.56 408.55 194.56 382.88" style="fill:#8e8e8e"/><polyline points="205 441.22 306.68 515.34 361.35 640 301.47 522.47 196.68 466.67" style="opacity:0.1"/><polygon points="128.01 590.4 96.34 628.13 103.22 625.88 104.56 648.55 55.22 648.55 87.75 575.59 128.01 590.4"/><path d="M145.35,298.55c-7.26-5,16.73-9.27,27.87-6.67,2.71,12.69,7,31.77,12.79,54.79,30.69,121,55.32,153.89,43.21,198.55-5.6,20.64-20.55,49.34-64.67,77.33-100.51-20.63-121.06-41.28-122-56,0,0,45.86-32.81,76.67-77.33C150.85,443.51,147.37,386.5,140,346.67l20-5.42C159.47,335.47,166.72,313.22,145.35,298.55Z"/><line x1="198.13" y1="374.58" x2="131.35" y2="407.88" style="fill:#fff"/><line x1="197.13" y1="375.58" x2="130.35" y2="408.88"/><polyline points="152.91 396.48 170.26 339.21 139.02 335.88 139.02 347.67 103.68 446.34"/><path d="M367,297.54a30.15,30.15,0,0,1,3.4,6.67,31.25,31.25,0,0,1,1.94,7l1-.34a51.12,51.12,0,0,0-2.18-7,52,52,0,0,0-3.18-6.75Z" style="fill:#fff"/><path d="M324.44,329.72c-.61-2.06-1.34-4.24-2.17-6.49-1-2.6-2-5-3-7.25l-1.51.58a75.78,75.78,0,0,1,3,7.19c.84,2.29,1.55,4.51,2.09,6.54Z" style="fill:#fff"/><polyline points="140.02 440.6 215.37 430.05 198.13 374.31 129.18 410.33" style="fill:#fff"/><polyline points="104.4 445.34 214.23 428.43 198.13 376.56 127.19 411.94"/><path d="M45.66,575.58A255.4,255.4,0,0,0,88.81,544c13.62-12.37,34.16-31.39,49.33-62.62a184.52,184.52,0,0,0,14.39-43.45c-.05.63.32.21.25.88A169.57,169.57,0,0,1,140,488.71c-11.14,25.51-26.48,41.73-43.36,59.56a341.11,341.11,0,0,1-41.43,37.14c-2.25-1.28-2.62-1.8-5.46-4.53A19.17,19.17,0,0,1,45.66,575.58Z" style="fill:#fff"/><polygon points="148.53 336.89 177.89 343.22 159.32 336.89 148.53 336.89" style="fill:#fff"/><polygon points="129.18 410.33 118.34 428.49 133.36 408.11 129.18 410.33" style="fill:#fff"/><polygon points="137.34 406.33 131.35 416.38 139.65 405.11 137.34 406.33" style="fill:#fff"/><polyline points="138.38 353.49 147.73 359.53 143.06 381.39" style="fill:#fff"/><polyline points="141.64 390.75 131.37 384.95 136.5 363.95" style="fill:#fff"/><path d="M144.37,382.28c-26.08,5.34-47.53.55-47.91-10.69-.33-9.77,15.4-21.21,36.66-27.53-25.22,6.21-44.69,20-44.29,31.93.42,12.6,22.94,18.27,50.3,12.67,22.53-4.61,41.31-15.43,47-26.14C178.53,370.73,162.76,378.52,144.37,382.28Z"/><path d="M127.4,346q3.15-1.16,6.5-2.16c-24.57,6.05-43.55,19.51-43.16,31.11.41,12.27,22.35,17.8,49,12.35,22-4.49,40.25-15,45.79-25.47-7.38,8-22.75,15.59-40.67,19.25-25.41,5.2-46.31.54-46.68-10.41-.28-8.5,11.88-18.28,29.21-24.67" style="fill:#8e8e8e"/><rect x="194.14" y="311.97" width="26.97" height="96.83" rx="5.91" ry="5.91" transform="translate(468.99 36.85) rotate(68.88)" style="fill:#8e8e8e"/><rect x="225.92" y="329.95" width="22.96" height="42.19" transform="translate(479.31 3.1) rotate(68.88)"/><rect x="223.41" y="344.47" width="3.33" height="26.39" transform="translate(477.61 18.83) rotate(68.88)"/><rect x="225.49" y="349.86" width="3.33" height="26.39" transform="translate(483.98 20.34) rotate(68.88)"/><polygon points="103.53 619.56 89.31 612.88 84.84 612.99 86.68 609.07 89.45 612.58 103.75 619.3 103.53 619.56" style="fill:#fff"/><polygon points="99.2 624.71 86.43 618.71 81.96 618.82 83.8 614.9 86.57 618.41 99.43 624.46 99.2 624.71" style="fill:#fff"/><polygon points="107.81 614.47 91.99 607.04 87.52 607.15 89.36 603.23 92.13 606.74 108.02 614.21 107.81 614.47" style="fill:#fff"/><polygon points="58.23 647.36 62.94 642.48 66.17 646.21 71.84 641.19 75.34 647.43 82.87 641.62 86.2 645.86 92.69 641.55 96.46 647.52 99.93 642.08 103.65 647.55 58.23 647.36" style="fill:#fff"/><path d="M331.07,327.17c-.61-2.06-1.34-4.24-2.17-6.49-1-2.6-2-5-3-7.25l-1.51.58a75.78,75.78,0,0,1,3,7.19c.84,2.29,1.55,4.51,2.09,6.54Z" style="fill:#fff"/><path d="M337.75,324.58c-.61-2.06-1.34-4.24-2.17-6.49-1-2.6-2-5-3-7.25l-1.51.58a75.78,75.78,0,0,1,3,7.19c.84,2.29,1.55,4.51,2.09,6.54Z" style="fill:#fff"/><path d="M344.39,322c-.61-2.06-1.34-4.24-2.17-6.49-1-2.6-2-5-3-7.25l-1.51.58a75.78,75.78,0,0,1,3,7.19c.84,2.29,1.55,4.51,2.09,6.54Z" style="fill:#fff"/><polyline points="209 439.22 310.68 513.34 365.35 638 305.47 520.47 200.68 464.67"/><polygon points="327.89 591.88 365.35 573.22 372.56 628.21 393.22 619.88 399.22 648.55 351.89 648.55 327.89 591.88"/><polygon points="371.35 618.91 355.34 624.93 352.3 628.21 350.77 624.16 355.22 624.63 371.3 618.58 371.35 618.91" style="fill:#fff"/><polygon points="372.21 625.53 357.51 631.06 354.47 634.34 352.94 630.29 357.39 630.76 372.17 625.2 372.21 625.53" style="fill:#fff"/><polygon points="370.53 612.68 369.87 612.6 353.03 618.93 349.99 622.22 348.46 618.16 352.91 618.63 369.76 612.29 370.38 611.59 370.53 612.68" style="fill:#fff"/><polygon points="353.71 647.55 358.38 642.63 361.64 646.35 367.28 641.29 370.81 647.51 378.31 641.65 381.66 645.87 388.13 641.52 391.94 647.46 395.37 642 399.12 647.45 353.71 647.55" style="fill:#fff"/><g id="flamethrower"><path d="M383,301.87c35.37-7.17,49.3-16.74,50.17-23.41,2.5-19.21-44.42-24.14-44.6-44-.12-13.57,18.74-25,36.43-33-16.17,8.38-31.8,17.14-28.83,30.5,6.39,28.72,67.5,19.73,62.83,54.5C458,293.76,440.82,300.41,383,301.87Z" style="opacity:0.1"/><path d="M387,299.87c35.37-7.17,49.3-16.74,50.17-23.41,2.5-19.21-44.42-24.14-44.6-44-.12-13.57,18.74-25,36.43-33-16.17,8.38-31.8,17.14-28.83,30.5,6.39,28.72,67.5,19.73,62.83,54.5C462,291.76,444.82,298.41,387,299.87Z" style="fill:#8e8e8e"/></g></svg>