<svg id="Layer_8" data-name="Layer 8" xmlns="http://www.w3.org/2000/svg" viewBox="0 0 500 648"><title>sidekick</title><g style="opacity:0.1"><polyline points="223.62 448.57 325.78 510.24 372.87 646.57 320.01 521.9 224.97 473.24"/><polyline points="212.75 448.57 206.7 473.24 212.75 554.24 98.62 628.91 224.75 559.9 224.97 473.24"/><path d="M313.78,336.6l-52.13-50.52,37.27,43.4L244.39,327,179.3,383.48,225,473.24l.15-69.42c-.39-1.48,15.2-54.49,15.2-54.49C242.78,341.07,313.78,336.6,313.78,336.6Z"/><polygon points="300.49 315.08 271.19 294.79 264.98 295.23 287.37 324.17 300.49 315.08"/><polygon points="211.11 278.27 212.36 291.77 188.61 273.27 193.85 291.52 174.88 286.11 187.73 302.39 179.73 302.39 189.92 314.64 185.11 315.75 201.86 327.02 235.86 318.27 237.52 315.22 241.11 300.15 235.1 303.04 232.11 288.02 228.51 296.92 211.11 278.27"/><polygon points="233.56 355.83 216.52 363.9 199.47 355.83 199.47 303.24 233.56 303.24 233.56 355.83"/><polygon points="233.56 355.83 217.3 363.9 201.03 355.83 201.03 307.24 233.56 307.24 233.56 355.83"/><rect x="262.43" y="284.31" width="20.25" height="15.75" transform="translate(138.04 -84.06) rotate(23.34)"/><rect x="238.53" y="274" width="20.25" height="15.75" transform="translate(132 -75.44) rotate(23.34)"/><rect x="196.38" y="306.24" width="39.41" height="19.15"/><polygon points="360.02 649.26 408.14 649.26 395.88 633.39 363.44 622.21 360.02 649.26"/><rect x="341.52" y="602.27" width="37" height="15.92" transform="translate(800.14 55) rotate(68.94)"/><polygon points="107.2 636.48 138.2 615.9 130.24 602.11 98.08 625.78 107.2 636.48"/><polygon points="192.24 370.49 260.28 342.24 236.62 354.91 191.14 373.21 192.24 370.49"/><polygon points="191.98 371.42 260.28 342.24 246.2 277.96 272.56 348.48 185.29 395.25 179.3 383.48 191.98 371.42"/><polygon points="236.02 343.49 216.78 340.89 197.02 343.49 197.02 326.3 216.78 329.57 236.02 326.3 236.02 343.49"/><polygon points="236.02 348.16 216.78 345.55 197.02 348.16 197.02 330.96 216.78 334.24 236.02 330.96 236.02 348.16"/><polygon points="267.12 317.19 250.39 285.72 244.67 283.25 251.28 319.24 267.12 317.19"/><polygon points="90.47 649.57 131.34 649.57 122.2 633.71 107.92 628.55 97.74 625.46 90.47 649.57"/></g><polyline points="227.62 446.57 329.78 508.24 376.87 644.57 324.01 519.9 228.97 471.24"/><polyline points="216.75 446.57 210.7 471.24 216.75 552.24 102.62 626.91 228.75 557.9 228.97 471.24"/><polyline points="223.62 548.74 217.78 470.07 220.95 455.24 218.27 449.84 213.78 470.07 219.62 548.74 210.45 556.36" style="fill:#fff"/><path d="M317.78,334.6l-52.13-50.52,37.27,43.4L248.39,325,183.3,381.48,229,471.24l.15-69.42c-.39-1.48,15.2-54.49,15.2-54.49C246.78,339.07,317.78,334.6,317.78,334.6Z" style="fill:red"/><polygon points="235.53 371.21 211.99 407.99 229.12 401.81 220.08 440.24 229.1 411.07 229.12 401.81 230.16 397.08 220.08 401.74 235.53 371.21" style="fill:#fff"/><polygon points="304.49 313.08 275.19 292.79 268.98 293.23 291.37 322.17 304.49 313.08" style="fill:#919191"/><polygon points="215.11 276.27 216.36 289.77 192.61 271.27 197.85 289.52 178.88 284.11 191.73 300.39 183.73 300.39 193.92 312.64 189.11 313.75 205.86 325.02 239.86 316.27 241.52 313.22 245.11 298.15 239.1 301.04 236.11 286.02 232.51 294.92 215.11 276.27"/><polygon points="237.56 353.83 220.52 361.9 203.47 353.83 203.47 301.24 237.56 301.24 237.56 353.83"/><polygon points="237.56 353.83 221.3 361.9 205.03 353.83 205.03 305.24 237.56 305.24 237.56 353.83" style="fill:#fff"/><rect x="266.43" y="282.31" width="20.25" height="15.75" transform="translate(137.57 -85.81) rotate(23.34)"/><rect x="200.38" y="304.24" width="39.41" height="19.15" style="fill:#919191"/><polygon points="364.02 648.26 412.14 648.26 399.88 632.39 367.44 621.21 364.02 648.26"/><rect x="345.52" y="600.27" width="37" height="15.92" transform="translate(800.84 49.98) rotate(68.94)" style="fill:#919191"/><rect x="340.57" y="609.35" width="37" height="1.56" transform="translate(799.44 55.82) rotate(68.94)" style="fill:#fff"/><polygon points="111.2 634.48 142.2 613.9 134.24 600.11 102.08 623.78 111.2 634.48" style="fill:#919191"/><polygon points="103.62 625.37 135.64 602.53 135.01 601.44 102.67 624.79 103.62 625.37" style="fill:#fff"/><polygon points="196.24 368.49 264.28 340.24 240.62 352.91 195.14 371.21 196.24 368.49" style="fill:#fff"/><polygon points="195.98 371.42 264.28 342.24 250.2 277.96 276.56 348.48 190.66 394.51 183.99 382.83 195.98 371.42" style="opacity:0.1"/><polygon points="195.98 369.42 264.28 340.24 250.2 275.96 276.56 346.48 189.29 393.25 183.3 381.48 195.98 369.42"/><polygon points="240.02 341.49 220.78 338.89 201.02 341.49 201.02 324.3 220.78 327.57 240.02 324.3 240.02 341.49"/><polygon points="240.02 345.16 220.78 342.55 201.02 345.16 201.02 327.96 220.78 331.24 240.02 327.96 240.02 345.16" style="fill:#fff"/><polygon points="240.02 346.16 220.78 343.55 201.02 346.16 201.02 328.96 220.78 332.24 240.02 328.96 240.02 346.16"/><polygon points="187.66 384.44 200.33 372.37 268.64 343.19 255.25 291.86 254.46 288.25 266.28 342.19 197.98 371.37 185.3 383.44 186.31 387.4 188.21 391.13 187.66 384.44" style="fill:#fff"/><rect x="203.47" y="304.24" width="1.56" height="19.15" style="fill:#fff"/><polygon points="94.47 647.57 135.34 647.57 126.2 631.71 111.92 626.55 101.74 623.46 94.47 647.57"/><g id="staff"><rect x="21.85" y="265.48" width="389.33" height="7.33" transform="translate(124.33 -63.75) rotate(23.34)" style="opacity:0.1"/><rect x="25.85" y="263.48" width="389.33" height="7.33" transform="translate(123.86 -65.5) rotate(23.34)" style="fill:#919191"/></g><rect x="267.41" y="282.51" width="20.25" height="10.81" transform="translate(136.75 -86.39) rotate(23.34)"/><rect x="242.53" y="272" width="20.25" height="15.75" transform="translate(131.53 -77.19) rotate(23.34)"/><polygon points="271.12 315.19 254.39 283.72 248.67 281.25 255.28 317.24 271.12 315.19" style="fill:#919191"/><g id="sidekick-tassle"><path d="M202.84,317.19c-4.54,5.2-16.46,18.21-32.11,27.93-20,12.41-37.92,14.37-45.94,5.17l7.53-4.49,5.56-3.31c3.28,1.08,14.47,3.87,35.21-6C185.88,330.36,196.86,322,202.84,317.19Z" style="opacity:0.1"/><path d="M202.8,318.49A84.84,84.84,0,0,1,180,326.27c-13.15,2.23-23-.58-25.21-7.12l4.92-.74,3.63-.55c1.49,1.27,6.76,5.13,19.77,4.38A87.79,87.79,0,0,0,202.8,318.49Z" style="opacity:0.1"/><path d="M206.84,315.19c-4.54,5.2-16.46,18.21-32.11,27.93-20,12.41-37.92,14.37-45.94,5.17l7.53-4.49,5.56-3.31c3.28,1.08,14.47,3.87,35.21-6C189.88,328.36,200.86,320,206.84,315.19Z" style="fill:#919191"/><path d="M206.8,316.49A84.84,84.84,0,0,1,184,324.27c-13.15,2.23-23-.58-25.21-7.12l4.92-.74,3.63-.55c1.49,1.27,6.76,5.13,19.77,4.38A87.79,87.79,0,0,0,206.8,316.49Z" style="fill:#919191"/></g><rect x="201.98" y="315.19" width="4.55" height="5.59"/></svg>