<svg id="Layer_8" data-name="Layer 8" xmlns="http://www.w3.org/2000/svg" viewBox="0 0 500 648"><title>super</title><g id="super-cape"><path d="M302.09,285.51c-5.33-9.33-34.27-17.68-46.09-24.11-69.06-82.31-70,254.77-215.56,138.77C46.85,426.68,74,525.39,169,586.85c56,36.23,129.35,61.71,206.22,36.22C439.72,601.69,399,412.51,302.09,285.51Z" style="opacity:0.1"/><path d="M306.09,283.51c-5.33-9.33-34.27-17.68-46.09-24.11-69.06-82.31-70,254.77-215.56,138.77C50.85,424.68,78,523.39,173,584.85c56,36.23,129.35,61.71,206.22,36.22C443.72,599.69,403,410.51,306.09,283.51Z" style="fill:red"/></g><path d="M379.25,621.07c9.69-3.21,17-10.22,22.11-20.24,28.84-56.62-12.93-209.42-95.27-317.32-5.33-9.33-34.27-17.68-46.09-24.11A463.63,463.63,0,0,1,359.77,431,463.43,463.43,0,0,1,379.25,621.07Z"/><g style="opacity:0.1"><path d="M375.25,623.07c9.69-3.21,17-10.22,22.11-20.24,28.84-56.62-12.93-209.42-95.27-317.32-5.33-9.33-34.27-17.68-46.09-24.11A463.63,463.63,0,0,1,355.77,433,463.43,463.43,0,0,1,375.25,623.07Z"/><path d="M223.46,246.13l-37.2-127.58-5.06-17.35s-5.49-10.18-.7,18C191,181,208.51,281.89,213,294.38c14.24,39.87,15.44,59,22.27,81.37L106.38,645.6c40.32-58,57.37-82.66,60.91-88.83,12.24-21.34,17.45-34.39,20.23-43.13,4.12-12.92,3-10.84,5.84-17.48,8.88-20.61,17.79-21,33.7-45.1,8.4-12.69,17-29.31,17.22-29.71h0l10.89-39.1"/><path d="M242.56,298.48,192.73,131.42S226,327.16,232.32,344.49"/><path d="M250.08,401.21c6.3,0,3.3-24.15,52-111.33-20.74-3.94-72.56-31.75-74.53-39.39L177.73,83.42S211,279.16,217.32,296.49C236.51,349,231.41,363.7,250.08,401.21Z"/><polygon points="302.09 289.88 309.88 344.56 321.38 285.88 308.38 384.06 300.2 380.26 284.36 299.71 302.09 289.88"/><path d="M259.59,366.58l-8.94,17.32-7.94-17.32-132.29,281C149.75,590.94,166.31,563,169.76,557c11.93-20.79,17-33.53,19.73-42.05,3.66-11.49,2.93-10.62,5.71-17.08,8.44-19.62,19-25.44,32.88-44a167.64,167.64,0,0,0,17.8-30s8.24-1.73,9.92,1.49c3.59,6.89,7.81,18.3,14.41,28.52,12.57,19.44,25.77,33.05,32.88,44,5.19,8,1.31,17.06,25.44,59.13,3.45,6,23,34,62.35,90.56Z"/><polygon points="191.37 73.35 174.05 73.88 158.22 82.84 173.19 104.19 173.02 104.23 181.06 166.98 208.49 160.66 186.83 101.49 191.37 73.35"/><polygon points="188.87 76.72 174.3 76.72 161.24 84.89 174.47 105.88 174.33 105.91 182.94 166.55 205.85 161.27 185.87 103.68 188.87 76.72"/><path d="M227.71,251.4c3.12,14.17,2.48,34.56,22.16,50.43,4.84,3.91,44.55-25.63,50.33-18.72-5-6.61-19.79-16.42-41.43-29C240.35,243.34,226.43,246.55,227.71,251.4Z"/><polygon points="238.35 214.09 275.06 214.09 275.06 279.06 256.7 289.04 238.35 279.06 238.35 214.09"/><path d="M327.53,549.83c-24.13-42.07-20.25-51.15-25.44-59.13-7.11-10.95-20.31-24.55-32.88-44-5.67-8.77-9.58-18.42-12.85-25.34l-4.74,2.42a3.3,3.3,0,0,1,3.18,1.57c3.59,6.89,7.81,18.3,14.41,28.52,12.57,19.44,25.77,33.05,32.88,44,5.19,8,1.31,17.06,25.44,59.13,3.45,6,23,34,62.35,90.56l-11.22-23.31C346.8,578.42,330.64,555.25,327.53,549.83Z"/><polygon points="241.26 215.09 273.74 215.09 273.74 276.45 257.5 285.88 241.26 276.45 241.26 215.09"/><ellipse cx="252.62" cy="336.95" rx="22.43" ry="23.42"/><ellipse cx="252.62" cy="338.44" rx="17.23" ry="19.09"/><polygon points="274.97 250.48 257.4 253.48 239.82 250.48 239.82 234.4 257.31 237.4 274.97 234.4 274.97 250.48"/><path d="M254.21,238.56c-7.29-6.12,5.12-5,14.52-6.11,5,.19,5.75,3.23,7.17,3.08,5.83-16.4,3.84-22.3,1.15-24.73-6.91-6.27-20.92-.49-29.54-7.29-5.37-4.24-7.33-7.17-6.35-13.78-3,2.08-8.15,6.42-10.1,13.45-3.77,13.53,7.55,25.17,9.91,27.45A34.75,34.75,0,0,0,254.21,238.56Z"/><polyline points="325.3 320.68 327.3 302.18 336.62 280.89 326.33 276.32 308.83 278.12 312.05 300.3 311.88 300.27"/><polygon points="188.48 102.12 170.74 106.15 169.67 113.77 192.73 108.53 188.48 102.12"/><polygon points="311.74 279.64 314.34 300.13 314.2 300.1 296.89 358.85 319.93 363.55 326.22 302.77 336.12 281.93 327.13 277.8 311.74 279.64"/><polygon points="329.42 302.44 311.47 299.45 307.6 306.1 330.93 309.98 329.42 302.44"/><polygon points="150.84 533.27 182.69 557.83 121.94 648.05 106.98 641.05 150.84 533.27"/><polygon points="82.48 650 103.69 621.04 122.9 650 82.48 650"/><polygon points="150.94 537.71 178.61 559.04 121.94 648.05 109.83 638.72 150.94 537.71"/><polygon points="85.94 648.05 103.94 623.71 121.94 648.05 85.94 648.05"/><polyline points="113.31 632.63 116.92 641.26 109.83 631.67"/><polygon points="110.77 622.36 134.29 636.47 143.4 629.28 112.82 610.95 110.77 622.36"/><polygon points="118.52 606.23 142.04 620.33 151.15 613.15 120.57 594.81 118.52 606.23"/><polygon points="350.33 533.27 318.49 557.83 379.23 648.05 394.2 641.05 350.33 533.27"/><polygon points="418.69 650 397.48 621.04 378.28 650 418.69 650"/><polygon points="350.23 537.71 322.56 559.04 379.23 648.05 391.34 638.72 350.23 537.71"/><polygon points="415.23 648.05 397.23 623.71 379.23 648.05 415.23 648.05"/><polyline points="387.86 632.63 384.25 641.26 391.34 631.67"/><polygon points="390.4 622.36 366.88 636.47 357.78 629.28 388.35 610.95 390.4 622.36"/><polygon points="382.65 606.23 359.13 620.33 350.03 613.15 380.6 594.81 382.65 606.23"/></g><path d="M227.46,244.13l-37.2-127.58L185.21,99.2s-5.49-10.18-.7,18C195,179,212.51,279.89,217,292.38c14.24,39.87,15.44,59,22.27,81.37L110.38,643.6c40.32-58,57.37-82.66,60.91-88.83,12.24-21.34,17.45-34.39,20.23-43.13,4.12-12.92,3-10.84,5.84-17.48,8.88-20.61,17.79-21,33.7-45.1,8.4-12.69,17-29.31,17.22-29.71h0l10.89-39.1" style="fill:#fff"/><path d="M246.56,296.48,196.73,129.42S230,325.16,236.32,342.49"/><path d="M254.08,399.21c6.3,0,3.3-24.15,52-111.33-20.74-3.94-72.56-31.75-74.53-39.39L181.73,81.42S215,277.16,221.32,294.49C240.51,347,235.41,361.7,254.08,399.21Z"/><polygon points="306.09 287.88 313.88 342.56 325.38 283.88 312.38 382.06 304.2 378.26 288.36 297.71 306.09 287.88"/><path d="M263.59,364.58l-8.94,17.32-7.94-17.32-132.29,281C153.75,588.94,170.31,561,173.76,555c11.93-20.79,17-33.53,19.73-42.05,3.66-11.49,2.93-10.62,5.71-17.08,8.44-19.62,19-25.44,32.88-44a167.64,167.64,0,0,0,17.8-30s8.24-1.73,9.92,1.49c3.59,6.89,7.81,18.3,14.41,28.52,12.57,19.44,25.77,33.05,32.88,44,5.19,8,1.31,17.06,25.44,59.13,3.45,6,23,34,62.35,90.56Z"/><polygon points="195.37 71.35 178.05 71.88 162.22 80.84 177.19 102.19 177.02 102.23 185.06 164.98 212.49 158.66 190.83 99.49 195.37 71.35"/><polygon points="192.87 74.72 178.3 74.72 165.24 82.89 178.47 103.88 178.33 103.91 186.94 164.55 209.85 159.27 189.87 101.68 192.87 74.72" style="fill:#fff"/><path d="M231.71,249.4c3.12,14.17,2.48,34.56,22.16,50.43,4.84,3.91,44.55-25.63,50.33-18.72-5-6.61-19.79-16.42-41.43-29C244.35,241.34,230.43,244.55,231.71,249.4Z"/><polygon points="242.35 212.09 279.06 212.09 279.06 277.06 260.7 287.04 242.35 277.06 242.35 212.09"/><path d="M331.53,547.83c-24.13-42.07-20.25-51.15-25.44-59.13-7.11-10.95-20.31-24.55-32.88-44-5.67-8.77-9.58-18.42-12.85-25.34l-4.74,2.42a3.3,3.3,0,0,1,3.18,1.57c3.59,6.89,7.81,18.3,14.41,28.52,12.57,19.44,25.77,33.05,32.88,44,5.19,8,1.31,17.06,25.44,59.13,3.45,6,23,34,62.35,90.56l-11.22-23.31C350.8,576.42,334.64,553.25,331.53,547.83Z" style="fill:#fff"/><polygon points="245.26 213.09 277.74 213.09 277.74 274.45 261.5 283.88 245.26 274.45 245.26 213.09" style="fill:#fff"/><ellipse cx="256.62" cy="334.95" rx="22.43" ry="23.42" style="fill:#fff"/><ellipse cx="256.62" cy="336.44" rx="17.23" ry="19.09"/><path d="M258.21,236.56c-7.29-6.12,5.12-5,14.52-6.11,5,.19,5.75,3.23,7.17,3.08,5.83-16.4,3.84-22.3,1.15-24.73-6.91-6.27-20.92-.49-29.54-7.29-5.37-4.24-7.33-7.17-6.35-13.78-3,2.08-8.15,6.42-10.1,13.45-3.77,13.53,7.55,25.17,9.91,27.45A34.75,34.75,0,0,0,258.21,236.56Z"/><polyline points="329.3 318.68 331.3 300.18 340.62 278.89 330.33 274.32 312.83 276.12 316.05 298.3 315.88 298.27"/><polygon points="192.48 100.12 174.74 104.15 173.67 111.77 196.73 106.53 192.48 100.12"/><polygon points="315.74 277.64 318.34 298.13 318.2 298.1 300.89 356.85 323.93 361.55 330.22 300.77 340.12 279.93 331.13 275.8 315.74 277.64" style="fill:#fff"/><polygon points="333.42 300.44 315.47 297.45 311.6 304.1 334.93 307.98 333.42 300.44"/><polygon points="154.84 531.27 186.69 555.83 125.94 646.05 110.98 639.05 154.84 531.27"/><polygon points="86.48 648 107.69 619.04 126.9 648 86.48 648"/><polygon points="154.94 535.71 182.61 557.04 125.94 646.05 113.83 636.72 154.94 535.71" style="fill:#fff"/><polygon points="89.94 646.05 107.94 621.71 125.94 646.05 89.94 646.05" style="fill:#fff"/><polyline points="117.31 630.63 120.92 639.26 113.83 629.67"/><polygon points="114.77 620.36 138.29 634.47 147.4 627.28 116.82 608.95 114.77 620.36"/><polygon points="122.52 604.23 146.04 618.33 155.15 611.15 124.57 592.81 122.52 604.23"/><polygon points="354.33 531.27 322.49 555.83 383.23 646.05 398.2 639.05 354.33 531.27"/><polygon points="422.69 648 401.48 619.04 382.28 648 422.69 648"/><polygon points="354.23 535.71 326.56 557.04 383.23 646.05 395.34 636.72 354.23 535.71" style="fill:#fff"/><polygon points="419.23 646.05 401.23 621.71 383.23 646.05 419.23 646.05" style="fill:#fff"/><polyline points="391.86 630.63 388.25 639.26 395.34 629.67"/><polygon points="394.4 620.36 370.88 634.47 361.78 627.28 392.35 608.95 394.4 620.36"/><polygon points="386.65 604.23 363.13 618.33 354.03 611.15 384.6 592.81 386.65 604.23"/><polygon points="278.97 248.48 261.4 251.48 243.82 248.48 243.82 232.4 261.31 235.4 278.97 232.4 278.97 248.48" style="fill:red"/></svg>