<svg id="Layer_8" data-name="Layer 8" xmlns="http://www.w3.org/2000/svg" viewBox="0 0 500 648"><title>villain</title><g style="opacity:0.1"><path d="M107.59,484.06c21.53,24.25,81.89,77,130.08,45.5,74.2-48.5,84.78,10,139.4-52.32l-74.61,4.81-65.41-45-58.43,59.42Z"/><polygon points="242.86 442.12 308.86 506.12 375.48 629.62 320.86 498.79 256.19 421.08 241.81 420.12 242.86 442.12"/><polygon points="242.81 442 176.81 506 110.19 629.5 164.81 498.67 229.48 420.96 243.86 420 242.81 442"/><path d="M223.61,427.54c-54.34,49-62.57,45.45-124.36,50,0,0,42.66,42.19,98.07,47.19l45.52-94Z"/><path d="M262.06,427.54c54.34,49,62.57,45.45,124.36,50,0,0-42.66,42.19-98.07,47.19l-45.52-94Z"/><polyline points="203.81 320.95 166.12 393.52 151.81 401.32 118.36 307.95 155.77 374.68 184.64 291.86"/><polyline points="281.86 324.16 319.55 396.74 333.86 404.53 367.31 311.17 329.89 377.9 301.03 295.07"/><polygon points="184.4 296.24 301.27 296.24 242.59 422.65 184.4 296.24"/><path d="M210.4,297.46a53.71,53.71,0,0,1-23-68.45,53.77,53.77,0,0,0-17.56,83.75Z"/><path d="M275.27,297.46a53.71,53.71,0,0,0,23-68.45,53.77,53.77,0,0,1,17.56,83.75Z"/><polygon points="208.33 296.24 242.43 346.59 277.33 296.24 208.33 296.24"/><path d="M208.33,281.08c2.26-2.21,15.94-15.85,34.4-15.85s32.34,13.63,34.6,15.85l-35,28Z"/><polygon points="242.53 313.56 220.53 278.08 208.33 281.08 242.43 331.43 277.33 281.08 265.05 278.08 242.53 313.56"/><polygon points="275.37 430.7 210.3 430.7 220.51 416.7 210.3 402.7 275.37 402.7 266.01 416.7 275.37 430.7"/><polygon points="259.88 309.35 242.83 318.78 225.79 309.35 225.79 247.99 259.88 247.99 259.88 309.35"/><polygon points="366.52 648.27 382.86 640.97 361.64 551.23 328.24 567.14 366.52 648.27"/><polygon points="365.13 649.97 423.69 649.97 408.77 630.67 369.29 617.05 365.13 649.97"/><rect x="352.79" y="617.25" width="37" height="15.92" transform="translate(1023.82 946.07) rotate(146.89)"/><polygon points="119.15 648.27 102.81 640.97 124.03 551.23 157.43 567.14 119.15 648.27"/><polygon points="120.54 649.97 61.98 649.97 76.9 630.67 116.38 617.05 120.54 649.97"/><rect x="95.88" y="617.25" width="37" height="15.92" transform="translate(360.12 39.05) rotate(33.11)"/><polygon points="239.82 258.4 235.67 263.66 242.83 275.29 250 263.66 245.85 258.4 239.82 258.4"/><polygon points="269.83 419.79 242.83 418.79 215.83 419.79 215.83 413.6 242.83 414.6 269.83 413.6 269.83 419.79"/></g><path d="M111.59,482.06c21.53,24.25,81.89,77,130.08,45.5,74.2-48.5,84.78,10,139.4-52.32l-74.61,4.81-65.41-45-58.43,59.42Z" style="fill:red"/><polygon points="246.86 440.12 312.86 504.12 379.48 627.62 324.86 496.79 260.19 419.08 245.81 418.12 246.86 440.12" style="fill:#919191"/><polygon points="246.81 440 180.81 504 114.19 627.5 168.81 496.67 233.48 418.96 247.86 418 246.81 440" style="fill:#919191"/><polyline points="207.81 318.95 170.12 391.52 155.81 399.32 122.36 305.95 159.77 372.68 188.64 289.86" style="fill:#919191"/><polyline points="285.86 322.16 323.55 394.74 337.86 402.53 371.31 309.17 333.89 375.9 305.03 293.07" style="fill:#919191"/><polygon points="188.4 294.24 305.27 294.24 246.59 420.65 188.4 294.24"/><path d="M214.4,295.46a53.71,53.71,0,0,1-23-68.45,53.77,53.77,0,0,0-17.56,83.75Z"/><path d="M279.27,295.46a53.71,53.71,0,0,0,23-68.45,53.77,53.77,0,0,1,17.56,83.75Z"/><polygon points="288.76 307.85 276.5 300.29 269.64 310.13 288.76 307.85" style="fill:#fff"/><polygon points="287.76 320.2 269.64 310.13 262.77 319.98 287.76 320.2" style="fill:#fff"/><polygon points="275.76 328.17 262.77 319.98 255.91 329.82 275.76 328.17" style="fill:#fff"/><polygon points="204.78 307.85 217.04 300.29 223.9 310.13 204.78 307.85" style="fill:#fff"/><polygon points="205.78 320.2 223.9 310.13 230.77 319.98 205.78 320.2" style="fill:#fff"/><polygon points="217.78 328.17 230.77 319.98 237.63 329.82 217.78 328.17" style="fill:#fff"/><polygon points="212.33 294.24 246.43 344.59 281.33 294.24 212.33 294.24" style="fill:#919191"/><path d="M212.33,279.08c2.26-2.21,15.94-15.85,34.4-15.85s32.34,13.63,34.6,15.85l-35,28Z" style="fill:red"/><polygon points="246.53 311.56 224.53 276.08 212.33 279.08 246.43 329.43 281.33 279.08 269.05 276.08 246.53 311.56"/><path d="M262.06,427.54c54.34,49,62.57,45.45,124.36,50,0,0-50.41,26.19-105.82,31.19h0l-37.77-78Z" style="opacity:0.1"/><path d="M223.61,427.54c-54.34,49-56.88,45.05-118.66,49.56,0,0,26.47,24.46,27,24.87,16,12.06,39.92,20.43,65.36,22.72l45.52-94Z" style="opacity:0.1"/><path d="M227.61,425.54c-54.34,49-62.57,45.45-124.36,50,0,0,42.66,42.19,98.07,47.19l45.52-94Z"/><path d="M266.06,425.54c54.34,49,62.57,45.45,124.36,50,0,0-42.66,42.19-98.07,47.19l-45.52-94Z"/><polygon points="279.37 428.7 214.3 428.7 224.51 414.7 214.3 400.7 279.37 400.7 270.01 414.7 279.37 428.7"/><polygon points="263.88 307.35 246.83 316.78 229.79 307.35 229.79 245.99 263.88 245.99 263.88 307.35"/><polygon points="262.02 305.15 246.83 312.74 231.64 305.15 231.64 255.73 246.83 258.15 262.02 255.73 262.02 305.15" style="fill:#fff"/><polygon points="370.52 646.27 386.86 638.97 365.64 549.23 332.24 565.14 370.52 646.27"/><polygon points="369.13 647.97 427.69 647.97 412.77 628.67 373.29 615.05 369.13 647.97"/><rect x="356.79" y="615.25" width="37" height="15.92" transform="translate(1030.08 940.21) rotate(146.89)" style="fill:#919191"/><polygon points="123.15 646.27 106.81 638.97 128.03 549.23 161.43 565.14 123.15 646.27"/><polygon points="124.54 647.97 65.98 647.97 80.9 628.67 120.38 615.05 124.54 647.97"/><rect x="99.88" y="615.25" width="37" height="15.92" transform="translate(359.68 36.54) rotate(33.11)" style="fill:#919191"/><polygon points="243.82 256.4 239.67 261.66 246.83 273.29 254 261.66 249.85 256.4 243.82 256.4"/><polygon points="245.07 257.47 242.65 260.99 246.83 268.75 251.02 260.99 248.59 257.47 245.07 257.47" style="fill:#919191"/><circle cx="246.83" cy="414.7" r="9" style="fill:#fff"/><polygon points="273.83 417.79 246.83 416.79 219.83 417.79 219.83 411.6 246.83 412.6 273.83 411.6 273.83 417.79" style="fill:#fff"/><ellipse cx="246.83" cy="414.7" rx="5" ry="6.05" style="fill:#919191"/><polygon points="246.43 344.59 241.42 366.06 246.43 374.06 251.38 366.06 246.43 344.59" style="fill:#fff"/><g id="villain-l"><polygon points="170.41 371.26 138.03 323.63 145.33 321.19 140.29 306.09 133.07 308.5 136.56 292.7 136.56 292.7 144.09 279.64 136.46 269.66 132.81 281.82 128.5 285.42 124.35 282.49 124.21 282.49 123.19 271.58 132.46 255.9 123.31 259.79 115.36 270.08 114.39 276.21 113.31 271.93 118.86 255.22 111.49 260.28 106.21 271.5 106.39 278.72 105.67 277.62 106.31 262.98 101.29 269.2 98.58 279.77 104.42 293.65 104.48 293.59 113.18 315.14 105.19 317.8 110.24 332.91 118.41 330.18 136.98 387.6 170.41 371.26" style="opacity:0.1"/><polygon points="116.72 310.57 130.11 304.09 174.41 369.26 140.98 385.6 116.72 310.57"/><polygon points="135.76 312.41 140.85 289.34 128.35 280.49 104.44 281.58 119.02 317.68 135.76 312.41"/><polyline points="140.56 290.7 148.09 277.64 140.46 267.66 136.81 279.82 130.13 285.4"/><polygon points="128.49 283.39 127.19 269.58 136.46 253.9 127.31 257.79 119.36 268.08 116.45 286.44 128.49 283.39"/><polygon points="120.7 283.38 117.31 269.93 122.86 253.22 115.49 258.28 110.21 269.5 110.67 288.01 120.7 283.38"/><polygon points="115.81 284.94 109.67 275.62 110.31 260.98 105.29 267.2 102.58 277.77 108.42 291.65 115.81 284.94"/><rect x="110.76" y="309.54" width="37" height="15.92" transform="translate(352.4 577.73) rotate(161.54)" style="fill:#919191"/><polygon points="130.53 335.44 124.97 336.08 126.54 340.94 130.53 335.44" style="fill:#fff"/><polygon points="136.98 348.99 129.14 348.99 131.47 356.22 136.98 348.99" style="fill:#fff"/><polygon points="134 364.01 136.63 372.16 143.46 364.01 134 364.01" style="fill:#fff"/></g><g id="villain-r"><polygon points="381.25 293.65 387.08 279.77 384.38 269.2 379.35 262.98 380 277.62 379.28 278.72 379.46 271.5 374.17 260.28 366.81 255.22 372.36 271.93 371.28 276.21 370.31 270.08 362.35 259.79 353.21 255.9 362.48 271.58 361.45 282.49 361.31 282.49 357.17 285.42 352.85 281.82 349.21 269.66 341.58 279.64 349.11 292.7 352.6 308.5 345.38 306.09 340.33 321.19 347.64 323.63 315.26 371.26 348.69 387.6 367.26 330.18 375.43 332.91 380.47 317.8 372.48 315.14 381.18 293.59 381.25 293.65" style="opacity:0.1"/><polygon points="376.95 310.57 363.56 304.09 319.26 369.26 352.69 385.6 376.95 310.57"/><polygon points="357.9 312.41 352.81 289.34 365.31 280.49 389.23 281.58 374.65 317.68 357.9 312.41"/><polyline points="353.11 290.7 345.58 277.64 353.21 267.66 356.85 279.82 363.53 285.4"/><polygon points="365.18 283.39 366.48 269.58 357.21 253.9 366.35 257.79 374.31 268.08 377.21 286.44 365.18 283.39"/><polygon points="372.97 283.38 376.36 269.93 370.81 253.22 378.17 258.28 383.46 269.5 383 288.01 372.97 283.38"/><polygon points="377.86 284.94 384 275.62 383.35 260.98 388.38 267.2 391.08 277.77 385.25 291.65 377.86 284.94"/><rect x="345.9" y="309.54" width="37" height="15.92" transform="translate(119.27 -99.04) rotate(18.46)" style="fill:#919191"/><polygon points="363.23 335.44 368.79 336.08 367.22 340.94 363.23 335.44" style="fill:#fff"/><polygon points="356.78 348.99 364.62 348.99 362.28 356.22 356.78 348.99" style="fill:#fff"/><polygon points="359.76 364.01 357.13 372.16 350.3 364.01 359.76 364.01" style="fill:#fff"/></g></svg>